<?xml version="1.0" encoding="UTF-8" standalone="no"?><!DOCTYPE svg PUBLIC "-//W3C//DTD SVG 1.1//EN" "http://www.w3.org/Graphics/SVG/1.1/DTD/svg11.dtd"><svg width="100%" height="100%" viewBox="0 0 400 200" version="1.1" xmlns="http://www.w3.org/2000/svg" xmlns:xlink="http://www.w3.org/1999/xlink" xml:space="preserve" xmlns:serif="http://www.serif.com/" style="fill-rule:evenodd;clip-rule:evenodd;stroke-linecap:round;stroke-linejoin:round;"><path id="AT" d="M225.266,156.253l-0.652,1.737l0.072,0.579l1.159,2.099l1.665,2.099l-0.435,0.507l-0.434,1.376l0.507,1.447l-2.823,0.217l-1.81,-0.651l-0.941,1.013l1.882,0.507l0.362,0.796l-0.362,1.014l-1.593,0.868l0.29,1.086l-0.362,0.507l0.796,1.158l-0.217,1.303l-1.81,0.362l-1.303,1.231l-0.941,0.651l-0.072,1.375l-1.737,-0.361l-1.158,0.144l-1.665,0.797l-2.027,-0.145l-1.882,0.145l-1.376,0.506l-0.723,0.941l-2.172,0.869l-3.619,-0.507l-3.62,-0.651l-1.882,-0.362l-2.895,-0.217l-6.226,-1.086l-0.796,-0.362l-2.244,-2.534l0,-1.665l-3.402,1.086l-2.244,-0.145l-2.461,0.218l-1.014,0.434l-0.868,1.592l-0.797,0.29l-1.52,-0.29l-0.651,-0.579l-2.172,-0.217l-0.362,-1.086l-0.579,-0.217l-1.448,1.376l-1.664,-0.29l-1.086,-0.579l-0.29,-0.724l-2.389,-0.579l0.218,-0.579l-0.797,-1.81l0.724,-2.171l-0.651,-0.507l1.23,-0.362l0.507,-0.362l2.534,1.158l0.651,1.014l0.869,0.217l-0.073,0.941l1.158,-0.362l0.724,-1.158l0.145,-1.376l2.027,-0.072l1.954,0.29l1.014,1.375l2.751,-0.362l0.796,-0.652l2.823,-1.085l4.126,-0.362l0.072,-1.014l1.448,0.217l1.086,0.58l1.81,-0.362l0.796,0.362l0.145,0.796l0.868,0.651l1.231,0.29l0.217,-1.086l-0.217,-1.375l-1.231,-0.217l0.435,-0.942l-0.073,-0.941l-1.81,-2.026l0.435,-0.941l2.244,-1.303l2.099,-0.579l0.724,-0.724l0.507,-2.1l1.665,0.652l0.941,-0.652l0.144,-2.026l1.593,0.868l0.579,0.941l2.823,0.29l1.013,-0.507l1.81,0.29l0.073,-0.797l0.941,-1.158l0.868,0l0.217,-2.316l0.869,-0.145l1.158,0.579l1.014,-0.289l3.474,1.23l1.086,-0.072l2.172,1.23l2.75,0.145l0.869,-0.651l3.692,1.085l0.724,1.159Z" style="fill:none;fill-rule:nonzero;stroke:#1b3797;stroke-width:1.81px;"/><path id="BE" d="M125.516,132.293l1.158,-0.362l0.579,0.579l0.869,0.072l2.172,1.665l-0.29,1.086l1.231,0.506l0.289,1.448l-1.665,0.941l-0.434,1.231l-1.23,-0.507l-0.942,0.941l-1.013,1.81l-0.145,1.23l1.448,1.738l-0.796,1.23l-2.461,0.29l-2.027,-1.882l-2.389,-1.086l-1.231,-0.072l-0.289,-1.448l-0.434,-0.434l0.579,-1.955l-1.376,0.434l-0.362,1.014l-0.941,0.434l-1.592,0.217l-1.665,-0.217l-0.362,-0.434l0.507,-1.014l-0.507,-0.506l0.29,-1.159l-1.159,-0.796l-2.606,-0.289l-0.651,0.217l-0.434,-1.448l-3.041,-0.796l-0.362,-1.448l-1.158,-1.303l-2.316,0.724l-2.099,-1.737l-0,-0.869l-0.652,-1.592l3.692,-1.81l3.402,-1.231l0.217,0.941l0.869,0.507l0.869,-0.434l2.823,0.796l2.316,-1.086l0.434,-0.868l1.52,0.217l-0.144,-0.652l1.013,-0.507l1.086,0.58l1.086,-0.724l0.796,0.941l1.81,-0.579l0.362,1.158l1.882,1.013l1.375,-0.289l1.231,0.941l1.882,0.796l-0.724,2.099l-0.797,0.941l0.507,0.797Z" style="fill:none;fill-rule:nonzero;stroke:#1b3797;stroke-width:1.81px;"/><path id="BY" d="M309.741,74.166l1.303,0.941l0.869,-0.29l1.375,-0.072l2.244,1.592l1.158,-0.651l1.086,-0.217l2.606,0.868l0.145,1.665l1.231,1.086l1.52,-0.941l1.954,-0.796l2.461,-0l1.955,0.651l1.737,1.303l2.534,1.014l0.289,1.809l-0.434,1.303l1.52,1.52l0.362,0.941l-0.941,1.448l-0,1.448l2.968,1.448l0.362,0.362l-0.362,1.303l1.013,0.434l1.303,1.737l1.086,1.014l3.547,1.52l0.507,0.579l-0.29,2.027l3.837,0.362l2.316,0.941l-0,0.796l0.507,0.796l2.026,1.014l0.435,1.23l-1.882,0.724l-0.217,0.651l-2.172,1.303l-2.534,-0.144l-1.737,-1.086l-2.099,0.072l-1.014,1.955l2.824,2.388l0.434,0.724l-0.145,1.086l0.724,1.086l0.362,2.389l1.158,1.013l0.941,1.303l-3.619,-0.072l-1.014,0.579l-1.23,-0.29l-0.796,0.362l-1.593,1.665l-0.579,0.869l-0.724,2.389l1.303,2.605l-0.579,1.014l-1.955,-0.652l-0.361,-0.868l-1.448,-0.797l-5.14,0.435l-1.665,0.579l-0.434,-0.362l-1.81,-2.172l-2.75,1.159l-0.435,0.796l-0.724,-0.217l-0.579,-0.941l-3.691,-0.724l-1.376,0.506l-1.375,-0.361l-0.869,1.23l-0.579,-1.013l-0.796,-0.29l-2.172,0.073l-0.724,-0.218l-1.302,-1.52l-1.665,0l-4.416,-0.651l-4.705,-1.086l-5.646,-0.29l-1.738,0.073l-1.665,0.362l-4.27,0.362l-0.579,1.013l-1.159,1.158l-1.375,0.869l-0.796,-0.362l-1.376,-0.217l-0.796,0.362l0.072,1.013l-0.723,-1.158l-0.073,-0.941l0.579,-1.086l-0.289,-0.796l0.145,-1.737l-0.58,-0.724l-1.303,-0.724l-2.388,-0.941l-0,-0.869l1.447,-1.954l0.58,-0.362l2.895,-1.231l0.434,-1.158l-0.651,-2.823l-1.231,-2.606l-2.099,-3.547l-1.52,-3.692l2.099,0.29l1.158,-0.217l2.679,-0.217l1.158,0.651l2.389,-0.941l1.303,0.072l0.579,-1.882l1.447,0.145l1.014,-0.869l1.52,-0.362l0.724,-0.506l1.23,1.665l1.448,-0.145l0,-0.724l-0.651,-0.796l-1.376,-0.362l0.362,-1.448l0.724,-1.086l-0.289,-1.665l0.796,-2.171l1.882,-0.435l0.579,-0.434l0.724,-1.448l2.606,0.073l0.289,-0.796l0.941,-0.724l-2.823,-0.724l0.507,-2.244l0,-1.303l1.882,-0.435l0.869,-1.085l0.796,-0.217l2.172,0.289l2.244,0.072l0.289,-1.23l1.81,-1.737l1.013,-0.58l0.941,-0.144Z" style="fill:none;fill-rule:nonzero;stroke:#1b3797;stroke-width:1.81px;"/><path id="CH" d="M157.439,166.532l0.579,0.796l1.882,0.941l0.869,-0l0.651,0.507l-1.086,3.257l0.073,1.231l0.868,0.072l2.389,0.579l0.29,0.724l1.086,0.579l1.664,0.29l1.448,-1.376l0.579,0.217l0.362,1.086l-0.362,2.244l0.362,1.303l-1.375,-0.145l-0.724,-0.651l-0.941,0.217l-0.434,1.303l1.085,2.534l-0.868,0.217l-1.014,-1.376l-0.506,-0.072l-2.1,0.796l-1.447,-0.579l-0.579,-1.52l-1.448,0.072l-0,2.1l-0.362,0.796l-1.593,1.882l-0.144,0.724l0.506,1.23l-0.868,0.507l-0.652,-1.013l-0.941,-0.869l0.29,-0.869l-1.593,-0.434l-1.737,-1.448l-0.145,-1.809l-0.724,-0.435l-2.461,2.1l0.434,1.085l-1.158,1.593l-1.737,1.013l-2.244,-0.579l-1.882,0.724l-1.737,0.362l-1.014,-0.507l-0.651,-1.013l-1.665,-1.665l0.362,-1.231l-0.579,-1.592l-1.593,-0.217l-1.375,0.072l-1.665,1.086l0.362,0.941l-1.665,1.158l-1.014,-0.072l0,-0.724l1.086,-0.724l0.217,-1.086l-0.579,-0.506l0.797,-2.1l2.171,-1.592l0.362,-2.099l1.52,-0.652l2.751,-2.895l0.434,-0.652l-0.941,-0.796l1.303,-1.014l0.797,0l0.579,0.58l1.954,-0.218l0.579,-1.013l1.086,-0.507l0.724,0.217l2.027,0.073l2.388,-0.435l1.883,0.145l-0.145,-1.086l0.941,-0.868l0.941,-0l1.013,0.724l0.579,-0.145l0.797,0.651l2.678,-0.144Z" style="fill:none;fill-rule:nonzero;stroke:#1b3797;stroke-width:1.81px;"/><path id="CZ" d="M204.346,131.351l1.52,-0.289l-0.073,-1.375l2.389,0.579l0.217,0.796l0.724,0.796l3.33,0.796l1.955,0.797l0.579,0.651l2.316,-0.507l1.303,0.869l-0.507,0.796l-1.158,0.869l1.158,0.652l1.448,1.302l1.086,1.376l0.724,0.289l2.533,-1.809l-1.23,-1.738l0.941,0l1.592,0.435l2.389,1.375l2.606,-0.507l-0,1.159l-1.014,0.362l1.955,1.664l0.724,0.435l1.303,-0.724l2.533,1.303l0.362,-0.145l1.955,0.579l0.362,1.303l2.026,1.593l0.362,1.158l-2.026,0.217l-1.448,1.086l-0.434,0.579l-1.665,0.869l-0.507,2.171l-1.158,0.579l-1.52,1.376l-1.086,0.506l-1.231,0.145l-2.606,-0.362l-1.013,0.869l-0.796,2.027l-0.724,-1.159l-3.692,-1.085l-0.869,0.651l-2.75,-0.145l-2.172,-1.23l-1.086,0.072l-3.474,-1.23l-1.014,0.289l-1.158,-0.579l-0.869,0.145l-0.217,2.316l-0.868,0l-0.941,1.158l-0.073,0.797l-1.81,-0.29l-1.013,0.507l-2.823,-0.29l-0.579,-0.941l-1.593,-0.868l-0.434,-0.507l-2.099,-1.593l-0.941,0l-0.941,-1.158l-1.81,-1.086l-2.099,-1.882l-0.941,0l-1.665,-1.447l-1.303,-1.955l-1.014,-1.086l0.869,-1.23l-0.434,-1.158l-1.665,-0.942l-1.81,-2.461l0.362,-0.506l1.376,1.447l1.375,-1.882l0.796,-0.434l1.882,-0.434l1.52,0.289l0.579,-0.941l1.448,-0.217l0.434,-0.724l1.159,-0.507l0.796,0.073l0.434,-0.869l3.185,-0.724l2.534,-1.086l1.375,-0.434l-1.086,-1.086l0.579,-0.434l1.593,0.29l1.086,1.085l-0,0.652l1.013,0.434l0.652,-0.507Z" style="fill:none;fill-rule:nonzero;stroke:#1b3797;stroke-width:1.81px;"/><path id="DE" d="M196.383,98.56l-2.461,-0.072l-0.145,-1.231l-0.796,-0.724l-0.072,-0.724l3.402,1.883l0.072,0.868Zm-25.191,-5.863l-1.303,-0l-1.013,-0.507l0.579,-0.724l1.231,0.29l0.506,0.941Zm20.486,0.362l-0.941,0.506l-0.941,0l-0.941,0.941l-1.52,-0.796l-0.362,-0.796l0.072,-1.593l0.435,-1.013l1.447,-0.651l0.652,0.868l1.23,0.435l-0.362,1.23l1.231,0.869Zm-33.732,-4.778l1.303,0.507l1.158,1.158l0.072,1.014l-1.23,1.158l2.316,-0.217l0.579,0.868l1.231,-0.289l3.257,1.303l2.316,-0.652l0.507,1.014l-0.434,1.085l-1.593,1.159l1.014,0.868l1.52,-0.145l2.606,0.652l2.389,-1.81l0.796,-0.362l2.606,-0.217l3.692,-3.257l3.836,0.651l1.086,1.376l2.678,1.52l2.317,-0.145l0.941,1.448l0.579,1.809l1.375,0.941l2.027,0.362l0.507,1.882l1.303,2.968l-0.218,1.955l-1.375,1.303l-0.507,1.158l1.158,1.013l2.389,1.52l1.014,1.231l-0.435,1.882l1.448,1.665l0.579,1.375l-0.507,1.882l-0.579,0.797l1.376,2.244l-0,1.158l1.592,0.651l1.158,2.317l-0.289,1.665l-1.158,2.605l-0.652,0.507l-1.013,-0.434l-0,-0.652l-1.086,-1.085l-1.593,-0.29l-0.579,0.434l1.086,1.086l-1.375,0.434l-2.534,1.086l-3.185,0.724l-0.434,0.869l-0.796,-0.073l-1.159,0.507l-0.434,0.724l-1.448,0.217l-0.579,0.941l-1.52,-0.289l-1.882,0.434l-0.796,0.434l-1.375,1.882l-1.376,-1.447l-0.362,0.506l1.81,2.461l1.665,0.942l0.434,1.158l-0.869,1.23l1.014,1.086l1.303,1.955l1.665,1.447l0.941,0l2.099,1.882l1.81,1.086l0.941,1.158l0.941,0l2.099,1.593l0.434,0.507l-0.144,2.026l-0.941,0.652l-1.665,-0.652l-0.507,2.1l-0.724,0.724l-2.099,0.579l-2.244,1.303l-0.435,0.941l1.81,2.026l0.073,0.941l-0.435,0.942l1.231,0.217l0.217,1.375l-0.217,1.086l-1.231,-0.29l-0.868,-0.651l-0.145,-0.796l-0.796,-0.362l-1.81,0.362l-1.086,-0.58l-1.448,-0.217l-0.072,1.014l-4.126,0.362l-2.823,1.085l-0.796,0.652l-2.751,0.362l-1.014,-1.375l-1.954,-0.29l-2.027,0.072l-0.145,1.376l-0.724,1.158l-1.158,0.362l0.073,-0.941l-0.869,-0.217l-0.651,-1.014l-2.534,-1.158l-0.507,0.362l-1.592,-0.869l-3.692,-1.665l0.724,1.159l-2.678,0.144l-0.797,-0.651l-0.579,0.145l-1.013,-0.724l-0.941,-0l-0.941,0.868l0.145,1.086l-1.883,-0.145l-2.388,0.435l-2.027,-0.073l-0.724,-0.217l-0.796,-0.941l-0,-1.086l0.434,-1.447l-0.145,-1.738l0.217,-1.085l0.724,-1.303l1.014,-3.982l2.533,-2.75l-0.072,-0.941l-1.158,-0.435l-3.475,-0.579l-1.448,-1.013l-2.171,0.434l-1.52,-0.072l-0.218,-0.652l-1.013,-0.289l-1.303,0.506l-2.533,-3.112l-1.014,-0.073l0.434,-2.171l0.652,-0.652l-0,-1.013l-2.027,-0.796l-1.086,-1.159l-0.217,-1.592l0.434,-1.231l1.665,-0.941l-0.289,-1.448l-1.231,-0.506l0.29,-1.086l-2.172,-1.665l0.434,-1.737l-1.375,-0.869l0.362,-0.579l1.593,-1.158l-0.507,-0.869l0.941,-2.027l-0,-0.868l-2.244,-2.968l0.507,-0.796l1.303,-0.507l1.664,0.579l3.258,-0.941l0.507,-0.724l-0.724,-0.651l0.217,-0.652l1.882,-1.158l0.434,-1.882l-0.579,-0.724l-1.882,-0.217l-0.507,-0.724l0.435,-1.158l2.244,0.072l0.796,-2.751l0.507,-1.23l-0.073,-3.113l-1.23,-1.013l0.362,-1.955l0.796,-1.013l0.651,-0.29l2.896,-0.217l3.257,0.073l1.376,1.592l-0.435,0.869l1.159,0.217l0.651,-1.737l1.013,0.579l0.797,-0.073l-0.362,-1.23l0.145,-1.158l0.651,-1.014l2.389,0.434l2.606,-0.217l0.072,-0.434l-2.027,-0.362l-0.651,-0.796l-0.145,-2.823l-1.086,-0.579l-1.158,0.217l-0,-1.086l2.461,-0.796l0,-0.724l-2.461,-2.751l-0.145,-1.158l1.955,0.072l3.764,0.941l2.244,-0.506l1.086,0.289Z" style="fill:none;fill-rule:nonzero;stroke:#1b3797;stroke-width:1.81px;"/><path id="DK" d="M171.482,87.557l1.52,0.724l1.737,0.217l0.29,1.376l-2.534,0.506l-3.691,-1.52l0.072,-1.809l1.665,-0.145l0.941,0.651Zm9.917,-0.796l-1.665,0.072l-1.375,0.724l-0.217,-0.868l1.158,-0.724l0.868,0.145l1.231,0.651Zm-20.847,0.869l-0.869,0.144l-1.231,-0.361l-0.434,-1.665l1.954,0.796l0.58,1.086Zm5.791,1.447l-1.014,-1.085l1.81,-2.1l0.506,-0.144l-1.302,3.329Zm36.265,-2.895l-1.737,-0.145l-1.737,-0.724l0.072,-1.447l0.362,-0.652l3.258,1.665l-0.218,1.303Zm-37.713,-6.298l1.665,3.113l-0.073,2.027l-1.303,0.868l-1.52,0l-3.909,-1.23l-1.23,-2.099l-0.073,-1.665l3.475,-1.014l1.882,0.579l1.086,-0.579Zm16.866,0.145l-0.724,0.434l-0.507,-0.651l0.652,-0.652l0.579,0.869Zm-17.301,-2.027l-0.651,0l-0,-2.171l1.086,1.158l-0.435,1.013Zm16.36,0l0.072,1.086l-0.506,0.507l-1.448,0.506l-0.796,1.303l1.447,0.869l0.362,1.086l-0.724,0.507l-1.882,0.506l0,4.054l-1.592,0.434l-1.086,-1.52l-0.072,-0.651l-0.941,-2.244l-1.448,-0.29l-1.593,0.073l-1.085,-1.303l0.072,-1.521l-0.724,-1.447l-0.941,-0.435l0.29,-1.013l2.244,-0.145l1.085,-1.375l0,-0.652l1.303,-0.144l0.579,0.506l0.073,1.882l1.158,0.362l0.796,-2.099l-0.651,-0.796l2.823,-1.593l0.796,-0.072l2.172,0.651l-0.29,1.52l0.507,1.448Zm-22.874,10.279l-1.086,-0.289l-2.244,0.506l-3.764,-0.941l-1.955,-0.072l-0.362,-1.52l-0.579,-1.014l0.796,-0.217l-0.651,-2.823l-2.316,-0.941l-1.81,-1.013l0.362,-4.054l-0.724,-1.665l0.072,-4.995l0.941,-0.072l2.244,0.579l1.086,0.652l0.435,-1.376l1.158,-1.158l1.447,-0.579l1.159,0.941l0.217,-3.257l-1.158,-0.362l-0.941,0.289l-0.941,1.376l-0.724,1.737l-1.376,0.145l-1.085,0.506l-1.738,-1.013l0.073,-1.014l1.158,-1.375l1.448,-1.375l1.592,-0l1.158,-0.435l2.823,0.073l2.027,-0.941l2.027,-2.606l1.086,-1.086l2.389,-0.362l2.171,-1.23l-0.579,1.809l0.869,1.231l-0,2.171l-0.652,0.724l-1.013,1.81l0.145,4.054l1.809,1.085l2.968,0l0.724,0.797l-0.507,1.592l-1.882,1.014l-0.651,-0l-1.014,-0.797l-0.796,0.652l-0.869,3.692l-1.447,-0.073l-0.869,0.362l1.014,0.869l-0.942,0.579l-2.461,2.244l0.797,2.461l-0.145,0.652l-1.086,0.941l-0.434,0.796l1.665,0.217l0.941,2.099Z" style="fill:none;fill-rule:nonzero;stroke:#1b3797;stroke-width:1.81px;"/><path id="EE" d="M259.794,47.962l2.823,0.144l2.896,1.303l-1.303,0.507l-2.679,1.81l-0.217,0.362l-1.882,-0.073l-1.013,0.145l-0.724,0.652l-0.652,2.026l-1.158,0.362l-0.217,-0.651l1.158,-1.303l-1.085,-1.014l-1.376,-0.506l0.652,-1.303l-1.159,-1.158l1.086,-0.145l0.724,0.362l1.448,-0.362l0.362,-0.724l2.316,-0.434Zm6.008,0.723l-0.651,0.145l-1.737,-0.796l0.723,-0.724l1.376,0.362l0.289,1.013Zm-3.909,-2.895l-0.579,0.507l-0.651,-0.435l-0.652,1.159l-0.941,0.217l-1.375,-1.81l-2.099,-0.362l-0.941,-0.507l3.257,-0.289l0.869,-1.158l0.941,0.072l0.289,0.652l1.52,0.217l0.652,0.724l-0.29,1.013Zm38.51,13.681l-1.375,-0.145l-2.461,-0.724l-2.896,0.869l-2.026,-0.796l-2.534,-1.955l-0.434,-0.506l-1.665,-0.362l-4.054,-1.81l-0.796,0.507l-1.086,-0.724l-6.081,2.027l0.724,-2.461l0.073,-2.606l-1.665,-0.29l-0.652,0.941l-0.941,0.217l-2.968,-0.941l-0.868,-1.52l-1.158,-0.796l-0.579,-0.869l-0,-1.303l-1.086,-1.447l0.506,-0.797l-0.506,-2.027l2.171,-0.868l2.389,-0.145l0.652,-0.941l1.447,-0.941l1.665,0.145l2.244,-0.724l4.561,0.072l0.289,-1.23l2.317,-0l5.501,0.868l1.303,0l2.027,0.869l1.013,0.217l2.896,0l4.56,0.362l0.869,-0.724l1.086,0.869l-0.724,1.013l-0.869,0.29l-0.651,2.316l-0.58,0.724l-1.23,-0.217l-1.81,0.145l-1.448,0.362l-0.941,0.796l0.073,0.796l1.882,1.665l1.013,2.027l1.882,1.592l0.579,0.941l1.738,2.1l1.303,1.809l-1.665,0.435l-0.869,1.447l-0.145,1.448Z" style="fill:none;fill-rule:nonzero;stroke:#1b3797;stroke-width:1.81px;"/><path id="FI" d="M253.279,29.648l1.448,0.144l-0.434,2.027l-1.665,-1.303l0.651,-0.868Zm-1.375,0.362l-1.52,-0.435l0.651,-0.579l0.869,1.014Zm-4.705,-1.955l-1.086,0.507l-0.217,-1.231l1.303,0.724Zm18.459,-45.531l-1.086,0.362l-0.941,-0.218l-0.145,-0.651l1.448,-0.434l0.724,0.941Zm21.788,-39.524l-2.678,0.941l1.158,0.579l0.579,0.869l-1.448,2.317l0.073,0.434l2.244,2.895l5.212,1.231l1.664,1.303l2.606,1.665l1.303,0.651l0.073,1.376l-2.172,2.171l-1.882,2.244l-0.869,1.231l0.29,1.23l1.882,1.521l1.665,1.592l2.172,2.534l2.171,1.809l2.172,3.041l0.289,1.013l-2.678,0.507l0.869,0.651l-0.435,0.941l0.217,1.375l-0.361,1.086l1.375,0.217l0.217,0.941l-1.231,0.724l0,0.652l1.014,1.23l0.724,0.435l2.316,0.434l0.652,1.158l-0.724,1.231l1.303,1.592l3.257,1.303l0.507,0.941l0.145,1.231l-1.738,2.172l-1.447,0.579l0.506,0.579l3.258,1.882l4.777,2.099l1.882,0.941l1.52,1.375l1.593,1.159l0.362,0.723l-1.158,3.258l-0.507,0.869l-1.592,1.592l-2.462,2.027l-1.665,1.665l-3.836,4.271l-1.375,1.085l-1.521,1.593l-3.547,2.389l-0.506,0.579l-1.81,1.086l-4.054,3.764l-2.533,0.724l-1.882,-0.797l-1.303,0.145l-0.869,0.579l-1.809,0.145l-1.448,0.434l-0.724,-0.506l-0.507,0.434l-1.375,0.145l-1.448,-0.724l0.217,1.086l-2.389,1.085l-0.579,-0.651l-1.447,0.724l-1.52,0.145l-0.797,0.579l-4.271,0.796l-1.085,0.941l-0.869,-0.217l-4.85,0.796l-2.099,-0.145l-1.955,1.448l-1.303,0.29l1.086,-2.172l-1.737,-0.796l-0.869,-1.158l-0.506,0.289l-0.218,1.086l-1.085,0.579l-1.448,-0.072l-0.29,-1.738l0.579,-1.665l-2.606,-0.434l-2.75,-1.013l-0.652,-0.073l-0.506,-0.941l-1.448,0.652l-1.52,-0.652l-1.231,-3.836l0,-0.941l0.652,-1.158l-0.073,-2.462l-0.434,-1.447l0.796,-0.435l-0.651,-1.158l-1.593,-2.171l-1.158,-0.797l0.362,-2.389l-0.434,-1.158l-1.376,-0.796l-0.796,-2.099l0.434,-1.737l1.738,-1.593l-0,-0.869l0.651,-0.796l-0.362,-0.941l1.955,-0.362l0.723,0.29l1.738,-0.29l1.375,-0.724l-0.796,-1.303l1.086,-0.506l0.868,-0.869l-0.072,-0.724l1.665,-0.362l1.737,-1.375l1.665,-0.796l1.665,-1.376l0.796,-0.072l0.217,-0.941l1.81,-1.376l0.579,-1.158l1.665,-1.303l1.592,-2.823l2.751,-0.869l2.751,0.218l-0.434,-1.231l0.723,-0.217l-0.434,-0.941l-0.724,-0.434l0,-3.33l-0.941,-0.652l-3.257,-1.158l-1.231,-0.072l-0.868,-0.869l-3.33,-0.507l-1.158,-1.809l-1.376,-1.593l-1.303,-0.434l-0.941,-1.882l0,-0.941l1.086,-0.941l-0.072,-1.303l0.506,-1.014l-0.434,-0.651l-2.389,-1.882l-0.579,-1.158l0.073,-0.797l0.723,-0.579l-0.434,-0.941l-2.027,-0.289l0.217,-1.376l-0.506,-1.013l-0.29,-1.737l0.796,-0.724l-1.303,-0.652l-1.375,-1.086l-1.013,-0.072l-0.869,-1.158l-2.533,-1.303l-6.009,-1.231l-3.04,-1.303l-3.474,-1.665l-2.1,-0.796l-0.289,-0.651l-2.099,-0.579l0.361,-0.29l1.521,0l1.375,0.29l0.362,-0.435l-0.724,-1.013l1.375,-0.796l2.606,-0l5.719,3.981l1.013,1.303l4.995,0.434l0.579,0.362l1.303,-0.072l2.678,-0.652l0.869,-0.868l1.086,0.072l2.606,0.796l2.823,0.579l1.882,0.579l0.941,-0.434l0.362,-1.23l1.158,-0.942l1.52,-0.217l1.086,-1.013l-0.507,-2.316l0.435,-1.231l0.506,-2.751l1.882,-1.23l1.231,-1.303l1.52,-0.145l2.751,0.289l0.651,-0.144l2.534,-1.159l2.099,-0.217l1.303,0.869l3.04,1.448l3.041,0.796l2.606,0.579l1.882,1.955l-0.507,0.723l-2.317,2.1l0,0.506l1.231,0.941Z" style="fill:none;fill-rule:nonzero;stroke:#1b3797;stroke-width:1.81px;"/><path id="GB" d="M66.955,133.234l-1.158,0.941l-0.941,0.144l-1.81,-0.868l0,-0.362l1.81,-0.796l1.448,0.434l0.651,0.507Zm-26.421,-28.738l0.941,0.651l-2.461,1.376l-0.869,-0.435l-0.651,-0.868l-0.073,-1.376l0.869,-0.362l1.303,0l0.941,1.014Zm-16.866,-8.252l-1.521,0.289l-2.099,0l0.073,-1.085l-1.014,-0.362l-1.303,-1.955l-0.941,-0.362l-1.375,1.158l0.362,0.652l-1.737,1.303l-2.1,-0.217l-0.579,-0.507l-1.52,-0.29l-0.145,-0.723l-1.954,-1.448l0.724,-1.014l2.099,-0.651l-0.724,-1.014l0.145,-0.579l1.158,0.073l1.593,-0.579l0.868,-1.159l0.724,-1.664l1.375,-0.652l0.941,0.434l1.376,-1.447l2.027,-0.073l1.954,-0.506l2.823,0.217l0.796,0.796l0.362,1.231l0.941,1.23l1.231,1.014l-0,0.651l-1.448,0.796l2.534,0.217l0.868,1.81l-1.52,0.217l-0.072,1.014l0.796,0.145l-0.434,1.013l-1.882,0.434l-1.014,1.593l-0.723,0.362l-1.665,-0.362Zm9.917,-14.622l-1.882,-0.362l-0.435,-1.448l0.652,-1.014l1.303,0.507l0.434,0.941l-0.072,1.376Zm-8.325,-5.14l0.507,2.461l-1.737,0.941l-0.58,-1.737l-1.013,0.724l0.145,-1.375l1.086,-0.218l1.592,-0.796Zm1.231,1.231l-0.797,-0.869l1.159,-1.592l1.23,-0.724l-0.072,1.158l-1.52,2.027Zm1.809,-5.647l-3.329,0.58l0.434,-2.172l-1.375,-0.652l0.217,-0.651l1.52,-0.362l1.23,1.231l1.521,0.434l-0.218,1.592Zm-11.726,-8.252l-1.086,-0.144l-0.29,-1.014l0.145,-1.665l1.158,0.145l0.073,2.678Zm9.265,-4.126l-0.072,2.027l2.099,0.579l1.448,-0.072l0.289,0.434l-2.388,1.955l-0.507,-0.073l-0.145,-1.592l-1.013,0.217l-1.376,-0.217l-0.868,-1.376l-1.955,-0.362l-0.651,-0.796l1.013,-0.434l0.217,-0.869l2.027,-0.434l1.086,-0.507l0.651,0.724l0.145,0.796Zm-8.614,-1.882l0.869,0.652l-0.796,0.941l-1.086,-0l-1.593,-0.724l0.145,-0.362l2.461,-0.507Zm8.542,-7.166l-1.158,1.882l-0.724,0.507l-0.145,1.23l-2.172,1.158l-2.316,1.738l-1.013,-0.724l1.882,-1.231l-1.52,-0.724l-0.145,-1.882l0.579,-0.506l1.013,0.506l1.376,-0.217l-0.507,-0.868l4.56,-2.317l0.29,1.448Zm25.191,-1.593l-0,0.869l-0.942,1.158l-1.592,0.869l-3.04,2.027l-1.81,0.941l-0.362,1.158l1.014,0.072l0.144,0.579l-1.592,1.159l-0.435,1.085l2.172,-0.289l3.837,-1.086l2.606,0.362l1.882,-0.217l4.994,0.145l1.376,-0.218l1.665,0.941l0.723,1.231l-2.026,2.461l-0.58,1.665l-1.447,2.534l-1.376,1.447l-1.447,1.81l-1.52,0.796l-2.244,0.362l3.257,1.376l-1.013,1.303l-1.738,0.072l-1.665,1.231l-1.52,0.506l2.606,0.797l1.737,-0.724l1.955,-0.073l3.764,1.376l2.606,2.461l1.448,1.086l0.362,0.796l1.52,4.995l1.086,2.75l1.158,1.303l3.257,1.158l0.796,0.435l2.462,2.389l2.461,1.737l-1.014,1.086l0.29,0.868l1.52,2.1l0.217,1.158l-0.941,-0.073l-1.665,-1.013l-0.217,0.507l3.619,2.388l1.159,1.448l0.723,1.955l-0.434,0.796l-2.171,1.954l2.026,1.014l0.869,-0.145l1.448,-1.52l1.23,-0.145l3.041,0.217l2.75,0.724l2.389,1.52l0.507,0.796l0.289,2.244l-1.592,4.199l-2.027,1.375l-0.362,1.231l-1.52,0.651l-1.231,-0.217l-1.737,0.869l1.231,0.434l-0,1.231l-0.797,0.434l-1.809,0.145l0.796,1.448l1.81,0.289l3.112,-0.145l1.376,0.145l-0.145,1.955l-0.29,0.289l-2.75,1.231l-0.724,1.303l-1.593,-0.073l-0.796,0.507l-4.126,1.375l-3.547,-0.579l-2.099,0.073l-2.896,0.434l-3.04,-0.869l-1.303,-0.145l-2.027,1.231l-3.04,0.362l-1.448,-0.145l0.652,1.086l-0.652,0.29l-2.751,-0.362l-0.723,0.362l-1.014,-0.145l-1.954,-1.014l-1.882,-0.072l-3.547,0.869l-0.724,0.941l-0.941,2.533l-0.796,0.869l-1.014,0.145l-3.257,-1.81l-1.086,0.362l-1.81,0.217l-1.954,0.507l-2.823,1.737l-0.652,1.086l-0.941,0.145l-0.796,-0.652l-1.014,-0.217l-1.664,0.579l-0.218,-0.941l0.724,-0.724l2.027,-0.507l1.81,-1.375l1.592,-1.665l3.33,-2.75l0.579,-2.244l1.955,-0.507l1.013,-1.81l2.968,-0.434l2.027,-0l2.027,0.362l2.099,-0.073l0.796,-0.506l1.375,-1.738l2.606,-2.171l-3.402,0.724l-2.751,1.665l-2.316,-0.29l-1.665,-1.375l-1.52,-0.579l-1.52,0.289l-0.507,-0.651l-1.737,-1.231l-1.882,0l-2.606,1.231l-1.882,-0.869l-0.652,-1.665l0.218,-1.013l0.796,-0.507l1.81,-0.434l2.75,-1.231l1.593,-0.507l2.027,-1.375l0.868,-1.665l-0.217,-1.448l0.362,-1.013l-0.651,-1.231l0.217,-1.085l-2.172,0.217l-1.954,0.868l-0.507,-0.796l2.027,-1.303l0.724,-1.013l1.882,-1.231l2.606,-0.941l1.375,0.072l2.678,-0.506l1.955,0.941l-0.579,-1.52l0.868,-0.29l0.073,-1.737l1.158,-1.593l-0.869,-0.434l0.073,-1.448l1.085,-0.579l0.507,-1.882l-1.23,-0.362l-1.521,0.434l-1.23,-1.085l-2.027,-2.606l-0.217,-1.014l1.158,-2.244l1.665,-1.447l-1.375,-0.58l-1.014,0.145l-1.954,0.869l-1.448,0.941l-1.52,-0l-0.579,-0.652l-0.797,0.073l-1.809,0.796l-2.534,-0.941l-0.796,1.665l-1.882,-1.81l-0.217,-1.375l0.941,-0l0.868,-1.737l2.1,-2.896l0.434,-0.869l-0.362,-1.013l-1.375,-1.086l0.217,-1.882l0.579,-0.724l1.086,-0.289l-1.376,-0.869l-2.099,0.652l-1.303,0.651l0.217,-1.448l-0.434,-0.289l-1.086,1.013l0.073,2.389l-1.52,4.126l-0.797,0.652l-1.013,-0.362l0.796,-2.823l1.014,-1.81l-0.435,-0.217l0.217,-2.606l0.724,-2.099l1.231,-2.751l1.592,-2.534l-2.968,1.955l-0.723,0.362l-1.738,-0.29l-0.579,-0.507l-0.724,-1.665l1.303,-0.144l1.231,-0.797l-1.086,-0.506l1.086,-0.652l1.23,-1.52l0.29,-1.375l-0.724,-1.086l-1.158,-0.434l-0.145,-0.652l1.231,-1.375l-0.507,-1.086l1.158,-2.244l2.172,0.072l1.375,-0.289l-1.665,-1.448l0.507,-2.099l2.678,-0.217l-0.579,-1.303l0.217,-1.448l1.159,-0.651l0.941,0.144l0.723,0.652l1.883,-0.652l0.434,0.579l2.027,-0.434l2.678,-0.217l3.257,-0.434l1.593,-0.29l1.665,0.145l-0.434,1.23Zm-0.435,-2.895l-0.941,0.072l-0.941,-1.013l1.086,-0.217l0.796,1.158Zm0.941,-2.461l1.955,0.434l-0.435,1.014l-1.013,-0.507l-1.448,0.217l-1.375,-0.724l0.289,-1.52l1.231,-0.072l0.869,0.362l-0.073,0.796Zm2.679,-1.665l-0.724,0.217l-0.29,-0.869l-1.23,-0.434l0.289,-0.579l1.955,1.665Zm11.654,-14.116l1.158,1.303l0.724,0.362l-0.941,2.751l-0.145,1.158l-0.724,1.231l-0.579,-0.29l0.652,-2.099l-0.362,-0.796l-1.231,0.217l-0.289,-0.652l1.158,-1.013l-0.579,-1.448l-0.797,-0.145l1.086,-1.158l0.869,0.579Zm2.099,0.29l-1.013,-0.941l0.941,-0.434l0.072,1.375Z" style="fill:none;fill-rule:nonzero;stroke:#1b3797;stroke-width:1.81px;"/><path id="HR" d="M227.727,218.723l1.665,0.289l-0.797,0.652l-0.868,-0.941Zm9.338,1.085l1.158,-0.072l0.434,0.652l4.488,2.75l1.231,0.507l0.868,1.375l-3.474,-2.244l-3.185,-1.809l-2.244,-0.507l-3.113,-1.448l-0.362,-0.651l4.199,1.447Zm-4.561,-2.533l-0.579,0.072l-4.053,-0.072l-1.231,-0.217l-0.362,-0.941l1.303,0.145l0.362,0.434l4.56,0.579Zm-3.836,-1.665l-1.448,0.072l-1.882,-0.579l0.217,-0.796l3.475,0.434l-0.362,0.869Zm-15.346,-11.944l-0.217,0.29l-2.389,-1.955l-0.217,-1.375l2.026,1.954l0.797,1.086Zm-3.547,-4.705l-1.376,-0.145l0.579,-0.796l0.797,0.941Zm-3.041,1.086l-0.651,-0.073l-1.231,-3.04l0.29,-0.868l-0.579,-1.448l0.651,-0.217l0.362,1.52l0.724,0.651l-0.072,1.158l0.506,2.317Zm2.679,-3.547l-1.086,0.217l-0.724,-0.724l-0.941,-0.145l-0.724,-0.724l0.724,-0.506l0.362,-0.869l2.389,2.751Zm35.831,-10.641l-0.506,1.086l1.158,1.954l0.145,1.158l0.941,0.29l-0.29,1.448l0.869,0.724l2.171,0.723l0.652,1.086l-1.665,0.073l-1.231,0.289l0.507,1.882l-0.724,1.158l-1.592,-0.144l-0.941,-1.593l-0.797,-0.579l-1.592,-0.145l-1.882,-0.506l-1.303,0.144l-1.303,-0.217l-1.593,0.724l-1.158,-0.941l-1.23,0.434l-2.027,-0.506l-1.81,-0.073l-1.954,-1.158l-1.086,0.869l-2.317,-0.217l-1.954,2.316l-1.303,-0.724l-1.231,-1.303l-1.302,-0.289l-0.869,0.434l-0.217,3.619l0.072,1.014l1.375,0.941l2.462,2.316l0.941,2.896l1.665,1.737l2.026,1.665l1.231,1.447l3.619,2.968l1.738,0.797l0.289,1.592l1.086,1.158l2.172,1.81l-0.218,1.158l-2.533,-2.027l-1.882,-1.085l-2.244,-2.027l-2.751,-0.797l-1.954,-0.868l-2.389,0.434l-1.303,-0.145l-0.507,-1.592l-4.198,-2.823l-3.113,-2.896l-0.579,-0.941l2.244,-0.868l-1.013,-0.58l-2.824,-2.461l-0.868,-1.158l-0.073,-2.968l-0.579,-1.23l-2.099,-1.593l-0.796,-0.796l-1.52,-0.507l-1.014,0.652l-0.217,1.375l-2.171,3.619l-0.941,0l-2.244,-3.04l-0.362,-1.375l-0.941,-2.823l0.506,-0.362l0.362,0.434l2.389,0.579l1.013,-0.941l0.797,0.362l2.606,-0.072l0.434,-0.218l0.869,-1.592l1.882,1.52l1.085,0.507l0.941,-0.362l1.448,0.507l1.158,0.144l0.869,-0.289l-0.579,-1.665l0.507,-0.507l-0.724,-0.796l1.52,-0.724l1.52,-0.434l0.29,-0.797l-0.145,-1.592l-0.652,-0.652l0.29,-1.013l3.185,-1.23l0.507,-0.724l1.447,-0l0,-1.231l0.652,-0.579l1.81,0.434l2.099,0.869l1.23,0.869l0.652,0.941l1.954,1.303l1.593,1.592l0.941,0.507l1.809,0.434l0.942,0.941l2.388,0.652l3.547,0.144l1.81,-0.651l0.796,-1.014l2.099,-0.289Z" style="fill:none;fill-rule:nonzero;stroke:#1b3797;stroke-width:1.81px;"/><path id="HU" d="M271.014,158.352l1.086,-0l1.013,1.665l1.593,0.579l0.651,0.796l1.665,0.29l0.652,0.506l0.507,1.231l-1.593,1.665l-3.33,0.796l-1.375,1.737l-0.869,0.724l0.073,1.231l-1.014,1.013l-0.507,1.81l-1.013,1.086l0,0.868l-1.158,1.955l0.145,0.941l-1.521,1.086l-1.085,3.402l-0.941,0.651l-1.882,-0.217l-1.81,1.448l-1.014,-0.362l-2.316,0.651l-0.724,-0.361l-2.027,-0.218l-0.796,0.145l-2.099,-0.289l-0.724,0.217l-1.086,1.158l-1.592,0.724l-1.158,-0.362l-1.521,0.941l-2.099,0.289l-0.796,1.014l-1.81,0.651l-3.547,-0.144l-2.388,-0.652l-0.942,-0.941l-1.809,-0.434l-0.941,-0.507l-1.593,-1.592l-1.954,-1.303l-0.652,-0.941l-1.23,-0.869l-2.099,-0.869l-1.376,-1.592l-1.013,-2.389l-1.738,-0.072l1.303,-1.231l1.81,-0.362l0.217,-1.303l-0.796,-1.158l0.362,-0.507l-0.29,-1.086l1.593,-0.868l0.362,-1.014l-0.362,-0.796l-1.882,-0.507l0.941,-1.013l1.81,0.651l2.823,-0.217l-0.507,-1.447l0.434,-1.376l0.435,-0.507l1.52,0.218l3.04,1.954l1.158,0.507l3.402,0.072l5.067,-0.289l0.435,-0.724l-0.362,-0.941l0.289,-0.724l1.014,-0.507l3.112,-0.289l1.738,-0.435l0.724,-1.086l0.506,-0.144l2.534,1.013l3.619,-1.81l1.158,-2.533l1.303,-0.29l1.955,0.073l1.809,0.434l3.33,-0.507l1.014,0.652l1.592,1.592l0.435,0.145l3.112,-0.796Z" style="fill:none;fill-rule:nonzero;stroke:#1b3797;stroke-width:1.81px;"/><path id="IE" d="M23.668,96.244l0.506,0.796l-1.592,0.29l1.086,3.764l0.434,0.651l-0,2.968l0.651,2.316l0.073,1.81l-0.941,1.303l-0.652,1.52l-0.144,1.303l-1.159,1.52l-1.085,0.652l1.158,1.086l-2.027,0.579l-1.882,-0.217l-0.941,0.579l-2.823,0.144l-2.679,0.507l-1.23,1.303l-1.81,0.507l-0.724,0.724l-1.665,0.579l-1.23,-0.869l-0.724,0.145l0.145,1.52l-2.1,0.941l-1.303,0.217l-0.723,0.507l-4.199,1.013l-1.375,-0.362l-2.389,0.579l-0.869,-0.072l1.159,-1.303l1.158,-0.941l-2.751,0.434l-1.013,0.362l-0.435,-0.434l2.317,-1.375l-2.389,0.072l-2.172,-0.289l-0.289,-0.724l2.099,-1.665l1.737,-0.652l-0.072,-0.651l-3.692,0.072l0.362,-0.796l1.231,-0.724l1.303,-0.072l1.085,0.434l0.797,-0.579l-0.435,-1.231l2.823,-1.665l2.172,-0.217l2.389,-0.506l2.389,-0.58l-1.738,-0.868l-1.665,1.303l-1.882,0.217l-1.375,-0.362l-1.52,-0l1.954,-1.448l1.159,-1.23l-0.58,-0.507l1.448,-1.665l2.606,-0.724l-1.158,-0.941l-2.823,0.145l-1.014,-0.941l-1.882,0.072l0.29,-0.868l-2.534,-0.145l0.362,-0.724l-0.434,-0.796l2.027,-0.435l-0.145,-1.447l1.375,-0.579l1.448,-0.29l0.072,-0.796l-1.447,-0.145l-1.448,0.29l0.579,-1.521l-0.579,-0.723l-0.29,-1.231l-0.651,-0.724l2.027,-0.145l0.868,-0.362l3.403,0.073l1.375,0.941l1.231,-0.869l3.474,0.652l0.434,-1.882l2.751,-1.086l0.869,-1.448l-2.678,0.29l-2.606,-0.724l0.506,-0.579l1.52,-0.507l1.376,-1.158l-0.217,-0.797l1.23,-1.954l2.244,-0.579l1.737,-0l1.159,-0.652l0.868,1.448l-0.724,0.724l0.435,0.652l0.868,-0.58l-0.362,-1.52l0.652,-0.941l1.375,-0.217l0.435,-0.579l2.316,1.231l-1.81,1.085l-0.362,0.507l-1.375,0.652l-0.724,1.664l-0.868,1.159l-1.593,0.579l-1.158,-0.073l-0.145,0.579l0.724,1.014l-2.099,0.651l-0.724,1.014l1.954,1.448l0.145,0.723l1.52,0.29l0.579,0.507l2.1,0.217l1.737,-1.303l-0.362,-0.652l1.375,-1.158l0.941,0.362l1.303,1.955l1.014,0.362l-0.073,1.085l2.099,0l1.521,-0.289Z" style="fill:none;fill-rule:nonzero;stroke:#1b3797;stroke-width:1.81px;"/><path id="IT" d="M221.501,272.579l-0.868,1.809l-2.027,3.113l-1.086,3.692l0.217,1.447l1.159,1.014l-0.507,0.362l1.158,1.303l0.072,0.941l-1.303,1.375l-0.289,1.231l0.072,1.086l-2.099,-0.435l-1.013,0.217l-2.679,-1.013l-1.375,-2.027l-2.172,-1.448l-2.171,0l-1.014,-0.362l-2.099,-1.375l-2.172,-1.013l-1.882,-1.52l-1.23,-0.29l-1.086,-0.724l-2.099,0l-1.665,-1.158l-0.941,-1.665l0.941,-2.678l1.013,-0.579l0.652,-0.869l1.665,1.665l1.303,-0.579l1.013,-1.158l1.737,0.072l0.362,0.651l1.014,0.218l1.809,1.158l1.014,0.289l2.461,-0.724l2.172,0.29l2.026,-0.362l1.231,-0.434l0.869,-0.724l1.013,-0.217l2.534,0.217l1.447,-0.869l0.579,0.145l1.448,-0.869l0.796,0.797Zm-56.679,-30.041l0.507,0.652l1.303,3.619l-0.434,1.158l-0.941,1.448l0.579,2.027l-0.435,8.324l-0.434,2.099l-0.651,0.29l-2.1,-0.869l-1.085,0.217l-0.869,-0.434l-0.217,2.172l-1.303,1.52l-2.172,-0.145l-0.506,-0.434l-1.738,-2.751l-0.289,-3.113l0.434,-0.941l0,-1.809l0.796,-0.073l0,-1.23l-1.303,-0.869l0,-1.375l0.507,-1.014l-0.072,-1.882l-0.579,-0.651l-0.58,-1.665l-1.592,-1.737l0.072,-2.462l2.461,0.435l0.942,-0.217l2.244,-1.086l1.52,-1.81l1.013,-0.362l1.086,-1.303l0.507,0.652l1.592,0.579l0.869,1.086l0.651,0.362l-0.506,1.013l0.723,0.579Zm6.009,-22.295l0.217,1.013l-1.81,0.362l-0.796,-0.796l2.099,-0.145l0.29,-0.434Zm27.434,-40.971l-0.145,0.651l-2.388,1.665l0.506,1.014l1.665,0.506l-1.158,1.52l0.217,0.724l0.941,0.145l-0.289,1.448l1.375,0.796l1.086,0.941l0.145,0.941l-1.086,0.072l0.507,-0.434l-1.448,-1.592l-1.448,0.651l-2.316,-0.651l-1.52,1.447l-1.086,0.29l-1.231,0.796l-2.316,0.869l-1.303,-0.29l-0.724,0.507l-0.29,2.244l0.579,0.434l1.086,1.882l1.231,0.797l-0.507,1.375l-0.651,0.507l-0.941,-0.362l-0.218,1.23l0.652,3.258l1.013,2.316l0.869,0.941l1.954,1.593l1.955,0.796l3.692,2.678l2.027,0.797l0.506,0.506l1.303,2.027l1.158,2.316l1.303,3.692l0.941,1.81l1.665,2.099l3.475,2.968l3.113,2.099l2.895,1.376l2.172,0.217l5.067,-0.29l1.882,0.507l0.289,0.869l-0.289,0.651l-2.099,1.52l-0,1.231l1.085,0.868l5.14,2.317l5.212,1.882l1.592,1.013l1.955,1.52l4.632,2.1l0.797,1.013l2.895,2.172l1.303,1.737l0.362,1.303l-1.086,3.185l-1.158,-0.362l-1.375,-0.941l-2.244,-3.909l-3.62,-0.362l-2.099,-0.941l-0.507,-1.013l-1.664,-0.29l-0.941,0.652l-1.014,1.447l-1.086,2.172l-1.086,3.113l0,1.23l0.797,1.231l2.099,0.724l1.737,1.085l1.158,1.159l0.218,2.75l0.651,1.52l-0.651,0.941l-1.376,-0.217l-1.809,0.507l-1.231,1.013l-0.507,1.014l0.362,2.461l-0.217,1.013l-2.389,1.81l-1.158,1.81l-0.724,1.665l-3.112,-0l-0.797,-1.086l-0.072,-1.593l0.434,-0.941l1.158,-0.506l0.652,-2.027l-0.362,-1.448l0.796,-1.158l2.027,-0.507l0,-2.099l-1.013,-0.941l-1.014,-3.692l-1.737,-3.113l-1.013,-2.75l-0.797,-1.303l-1.013,-0.724l-2.678,-0.217l-3.33,-1.882l-0.217,-0.797l0.434,-0.796l-0.796,-2.027l-1.448,-1.23l-1.882,0.434l-0.869,-0.072l-0.072,-1.086l-1.448,-0.941l-1.954,-0.145l-0.507,-0.507l-1.882,-2.895l-1.231,-1.231l-1.665,0.073l-2.823,-0.652l-1.447,0.507l-2.317,-1.882l-2.027,-0.652l-4.126,-3.836l-1.303,-1.448l-2.533,-1.592l-1.665,-2.317l-1.303,-0.868l-2.896,-1.014l-0.217,-0.941l-2.244,-2.244l-1.23,-0.724l-0.941,-1.52l-1.81,-0.362l0.072,-1.954l-0.868,-2.534l-1.231,-1.592l-0.869,-3.837l-0.579,-1.086l-1.303,-0.796l-2.895,-0.869l-4.126,-2.461l-0.796,-0.072l-2.462,-0.941l-1.52,-0.145l-1.882,0.869l-2.244,2.316l-1.809,2.461l-0.652,0.435l-2.461,0.868l-2.172,0.362l-0.144,-1.086l1.52,-1.882l-0.218,-1.447l-2.388,0.434l-3.692,-1.737l-0.652,-0.652l-0.072,-1.013l-0.507,-0.941l1.014,-1.81l0.579,-0.507l-0.362,-1.23l-2.316,-1.014l-1.086,-2.244l0.579,-0.289l1.375,0.145l1.231,-0.941l0.868,-0.218l0.58,-1.809l-1.303,-1.159l-1.231,-1.882l-0.651,-0.434l-0.073,-1.158l1.882,-1.231l1.014,0.507l1.737,-0.362l1.882,-0.724l2.244,0.579l1.737,-1.013l1.158,-1.593l-0.434,-1.085l2.461,-2.1l0.724,0.435l0.145,1.809l1.737,1.448l1.593,0.434l-0.29,0.869l0.941,0.869l0.652,1.013l0.868,-0.507l-0.506,-1.23l0.144,-0.724l1.593,-1.882l0.362,-0.796l-0,-2.1l1.448,-0.072l0.579,1.52l1.447,0.579l2.1,-0.796l0.506,0.072l1.014,1.376l0.868,-0.217l-1.085,-2.534l0.434,-1.303l0.941,-0.217l0.724,0.651l1.375,0.145l-0.362,-1.303l0.362,-2.244l2.172,0.217l0.651,0.579l1.52,0.29l0.797,-0.29l0.868,-1.592l1.014,-0.434l2.461,-0.218l2.244,0.145l3.402,-1.086l0,1.665l2.244,2.534l0.796,0.362l6.226,1.086l2.895,0.217l1.882,0.362Z" style="fill:none;fill-rule:nonzero;stroke:#1b3797;stroke-width:1.81px;"/><path id="LI" d="M161.275,173.336l-0.868,-0.072l-0.073,-1.231l0.362,-1.086l0.797,1.81l-0.218,0.579Z" style="fill:none;fill-rule:nonzero;stroke:#1b3797;stroke-width:1.81px;"/><path id="LT" d="M297.725,79.233l0,1.303l-0.507,2.244l2.823,0.724l-0.941,0.724l-0.289,0.796l-2.606,-0.073l-0.724,1.448l-0.579,0.434l-1.882,0.435l-0.796,2.171l0.289,1.665l-0.724,1.086l-0.362,1.448l1.376,0.362l0.651,0.796l0,0.724l-1.448,0.145l-1.23,-1.665l-0.724,0.506l-1.52,0.362l-1.014,0.869l-1.447,-0.145l-0.579,1.882l-1.303,-0.072l-2.389,0.941l-1.158,-0.651l-2.679,0.217l-1.158,0.217l-2.099,-0.29l-0.579,-2.171l-0.796,-0.652l-3.258,-1.592l-1.665,-0.507l-0.434,0.434l-0.941,-1.447l-0,-1.521l0.724,-2.244l-0.941,-0.941l-1.014,-0.434l-0.651,-0.941l-4.126,-0.072l-1.738,-0.435l-2.823,-1.013l-1.447,-0.869l-1.303,0.145l-0.435,-0.869l0.145,-1.158l-0.796,-1.737l-1.158,-2.099l-0.507,-2.751l2.027,-1.231l2.606,-1.375l3.402,-1.013l4.271,0.362l3.112,-0.073l0.724,0.652l1.158,-0.507l3.547,0.362l1.665,0.072l2.679,0.652l3.329,-0.29l1.231,-0.941l1.665,-0.145l1.737,2.1l4.416,0.723l0.651,0.29l3.909,2.244l1.882,1.52l1.086,0.507l1.665,0.362Z" style="fill:none;fill-rule:nonzero;stroke:#1b3797;stroke-width:1.81px;"/><path id="LU" d="M129.425,139.459l0.217,1.592l1.086,1.159l2.027,0.796l-0,1.013l-0.652,0.652l-0.434,2.171l-0.941,-0.506l-1.448,0.434l-1.013,-0l-1.52,-0.869l0.796,-1.23l-1.448,-1.738l0.145,-1.23l1.013,-1.81l0.942,-0.941l1.23,0.507Z" style="fill:none;fill-rule:nonzero;stroke:#1b3797;stroke-width:1.81px;"/><path id="LV" d="M300.403,59.471l1.376,0.217l0.362,0.797l2.316,1.23l0.507,1.593l-0.579,1.158l-0.218,2.244l1.303,-0.217l0.724,0.434l0.217,0.869l1.231,1.52l0.941,0.579l1.375,3.04l-0.217,1.231l-0.941,0.144l-1.013,0.58l-1.81,1.737l-0.289,1.23l-2.244,-0.072l-2.172,-0.289l-0.796,0.217l-0.869,1.085l-1.882,0.435l-1.665,-0.362l-1.086,-0.507l-1.882,-1.52l-3.909,-2.244l-0.651,-0.29l-4.416,-0.723l-1.737,-2.1l-1.665,0.145l-1.231,0.941l-3.329,0.29l-2.679,-0.652l-1.665,-0.072l-3.547,-0.362l-1.158,0.507l-0.724,-0.652l-3.112,0.073l-4.271,-0.362l-3.402,1.013l-2.606,1.375l-2.027,1.231l-0.579,-2.027l-0.434,-3.981l0.072,-2.027l1.375,-1.158l0.579,-0.869l0.435,-3.257l1.809,-2.606l1.738,-0.29l2.244,-0.724l2.533,-0.651l1.014,1.375l3.547,2.172l0.868,0.724l1.665,2.461l3.185,1.303l2.244,-0.434l2.606,-1.738l0.724,-0.796l0,-0.796l-0.869,-3.402l-0.796,-1.448l0.072,-0.941l6.081,-2.027l1.086,0.724l0.796,-0.507l4.054,1.81l1.665,0.362l0.434,0.506l2.534,1.955l2.026,0.796l2.896,-0.869l2.461,0.724l1.375,0.145Z" style="fill:none;fill-rule:nonzero;stroke:#1b3797;stroke-width:1.81px;"/><path id="MD" d="M329.213,191.216l-1.447,-1.665l0.651,-0.507l-1.013,-3.619l-0.073,-1.882l0.652,-3.475l-0.362,-2.099l-1.014,-1.665l-1.013,-2.099l-2.172,-1.52l-0.941,-1.231l-1.52,-1.303l-1.809,-2.316l-1.086,-0.941l-2.172,-3.547l-1.809,-2.172l-1.81,-1.158l-1.52,-0l0.144,-0.435l1.665,-1.013l0.507,0.145l2.896,0.072l0.868,-0.724l0.579,0.217l1.159,-0.723l2.533,0.723l2.606,1.738l1.81,0.217l0.434,0.869l4.054,0.434l1.013,1.375l1.013,0.724l1.014,-0.507l1.013,1.014l0.435,1.665l-0.435,2.244l0.435,0.868l1.665,0.869l2.099,1.448l-0,1.737l0.651,1.375l1.448,0.941l1.52,0.58l0.724,1.158l0.145,2.099l2.099,1.231l-0.434,0.506l-2.1,0.29l-0.868,-0.941l-1.158,0.434l-1.521,-0.579l-1.375,-0.145l-1.52,-0.724l-1.81,1.159l0.362,1.52l0.724,1.23l-0.289,1.448l-1.665,1.231l-0,0.941l-1.81,2.099l0.362,1.013l-0.29,0.724l-1.447,0.145l-0.797,0.507Z" style="fill:none;fill-rule:nonzero;stroke:#1b3797;stroke-width:1.81px;"/><path id="NO" d="M116.83,30.299l0.072,1.231l-0.724,-0.073l-0.506,-0.796l-0.145,-1.448l0.506,-0.362l0.797,1.448Zm-1.303,-8.035l-1.303,0l0.217,-0.941l0.651,-0.217l0.435,1.158Zm23.526,-23.091l-1.665,-0.145l-0.724,-0.579l2.027,-0.579l0.506,0.362l-0.144,0.941Zm2.606,-3.33l-0.218,-0.652l1.955,-0.434l0.651,0.724l-2.388,0.362Zm20.268,-12.016l-3.04,0.217l-0.218,-0.796l1.521,-0.58l0.868,0l0.869,1.159Zm4.922,-7.601l-1.448,0.217l0.073,-0.796l1.303,-0.217l0.072,0.796Zm2.968,-4.126l-0.072,-0.796l0.724,-0.869l0.723,0.29l-0.217,1.085l-1.158,0.29Zm2.244,-18.024l-1.086,0.506l0.797,-1.882l0.796,-0.506l0.289,1.085l-0.796,0.797Zm6.153,-3.765l1.665,0.145l-0.362,0.579l-1.013,0.217l-0.797,0.58l-1.375,0.144l-1.375,0.724l-1.159,0.217l-0.289,-0.868l0.651,-0.724l0.941,-0l0.724,-0.869l2.389,-0.145Zm8.976,-6.514l1.592,1.52l-0.217,1.086l-0.868,0.506l-2.389,0.073l-1.158,-0.652l-1.593,0.434l-1.158,-0.796l1.158,-1.013l1.882,0.289l0.362,-1.23l1.231,0.217l0.289,-1.086l0.869,0.652Zm4.56,3.619l0.941,-0.796l1.086,-0.29l0.435,-1.592l1.302,-0.362l1.159,0.724l0.651,0.868l-0.145,0.796l-2.244,0.869l-1.809,1.448l-1.158,-0.145l-0.507,0.507l-1.737,0.434l-1.231,-0.651l-0.652,0.651l-1.013,0.29l-0.869,-0.29l-2.099,1.086l-2.027,0.217l-0.724,-0.796l2.244,-1.376l3.692,-0.434l2.099,-1.665l0.29,-1.809l0.434,-0.652l-0.941,-0.434l0.145,-1.231l1.737,-1.23l0.941,-1.014l1.086,-0.217l0.652,0.796l-0.797,1.014l-1.158,0.868l0.796,1.086l0.435,1.737l-1.014,1.593Zm11.22,-9.917l1.014,0.579l1.086,-0.217l1.664,0.507l0.724,1.085l-0.868,0.652l0.289,1.23l-2.75,0.362l-0.652,-0.362l-1.086,0.652l-1.013,1.013l-1.593,-0.434l0.145,-1.158l-0.217,-1.665l0.507,-0.362l2.099,0.217l-0.29,-1.448l0.941,-0.651Zm89.76,-1.882l-1.303,0.289l0.145,-1.303l1.158,1.014Zm-66.885,-2.751l-0.941,0.29l-1.303,-0.217l-0.507,-0.724l1.592,-0.724l1.231,0.217l-0.072,1.158Zm-10.931,0.217l0.724,0.507l1.086,-0.362l0.796,0.724l-1.013,0.579l-0.579,0.869l-1.448,0.072l-2.099,1.665l-0.073,0.579l-3.619,0.362l-1.086,-0.217l1.231,-1.955l1.23,0l1.231,-0.579l-0.217,-0.579l1.809,-1.448l0.435,-1.23l1.013,-0.724l0.579,1.737Zm3.475,-1.447l1.013,0.144l0.941,1.159l-1.665,-0l-1.447,-1.303l1.158,-0Zm27,-3.113l0.362,0.796l-2.389,1.52l-1.158,0.073l-1.52,-0.869l0.072,-0.579l1.376,-0.652l0.651,0.073l1.955,-1.014l0.651,0.652Zm2.823,-0.217l-1.303,0.362l-1.23,-0.652l-0.145,-1.158l0.579,-0.217l2.316,0.869l-0.217,0.796Zm-4.632,-2.317l-0.29,0.579l-1.954,1.521l-1.593,0.506l-1.303,-0.217l-0.579,0.434l-1.448,0l-1.448,-0.434l-1.447,-0.868l2.533,-0.073l0.435,-0.362l1.085,0l2.027,-0.289l0.796,0.217l1.521,-1.014l1.665,0Zm43.866,17.011l-1.231,-0.941l0,-0.506l2.317,-2.1l0.507,-0.723l-1.882,-1.955l-2.606,-0.579l-3.041,-0.796l-3.04,-1.448l-1.303,-0.869l-2.099,0.217l-2.534,1.159l-0.651,0.144l-2.751,-0.289l-1.52,0.145l-1.231,1.303l-1.882,1.23l-0.506,2.751l-0.435,1.231l0.507,2.316l-1.086,1.013l-1.52,0.217l-1.158,0.942l-0.362,1.23l-0.941,0.434l-1.882,-0.579l-2.823,-0.579l-2.606,-0.796l-1.086,-0.072l-0.869,0.868l-2.678,0.652l-1.303,0.072l-0.579,-0.362l-4.995,-0.434l-1.013,-1.303l-5.719,-3.981l-2.606,-0l-1.375,0.796l0.724,1.013l-0.362,0.435l-1.375,-0.29l-1.521,0l-0.361,0.29l-3.692,0.144l1.882,1.159l0.072,1.447l-1.013,1.376l-1.158,0.651l2.099,0.652l-1.81,1.158l-0.724,-0.073l-6.225,-1.23l-2.099,-0.073l-2.968,-0.651l-1.52,0.362l-0,0.579l0.579,2.606l-1.52,2.244l-4.561,-1.303l-1.085,0.651l-2.679,1.376l-1.086,2.533l-0.796,0.797l-1.954,0.434l-0.362,0.796l1.954,1.665l0.724,0.941l-0.145,1.014l-1.085,0.723l-2.389,2.1l-2.172,2.099l-0.941,0.651l0.724,1.81l-2.389,1.086l-1.737,0.362l-2.751,0.289l1.014,2.823l-0.435,1.955l-0.072,3.402l-2.389,3.619l-3.185,3.62l3.402,1.158l0.797,2.099l0.072,0.869l-1.231,1.592l-5.139,-0.651l-2.389,0.289l-2.389,1.086l-2.533,2.751l-0.869,0.724l0.362,1.086l-1.448,2.026l1.955,2.968l-0.796,0.797l0.434,2.026l-0.072,1.303l1.809,3.185l0,1.159l-0.651,4.632l2.75,1.52l0.869,0.29l2.461,1.954l-0.289,1.376l-0.941,1.81l-1.738,-0l-1.303,0.434l0.218,1.158l2.244,3.547l0.361,1.013l-0.434,1.521l-0.072,2.026l-1.376,1.448l-0.941,0.579l-1.882,0.507l-0.651,1.737l-1.086,1.086l1.158,3.185l-0.434,2.823l-0.507,1.014l-1.375,0.144l-0.724,-1.303l-0.29,-0.723l-4.343,-0.869l-1.665,-2.099l-0.289,-2.244l-1.81,0.868l0.434,0.797l0,1.664l-1.809,2.824l-0.797,-0.145l-0.941,0.579l-0.941,0.145l-0.434,-0.724l-0.796,0.145l-0.579,0.723l-2.461,0.941l0.723,0.507l-1.23,0.724l-0.434,0.651l-1.955,1.086l-3.113,2.823l-1.664,0.797l-1.159,0.868l-1.013,0l-1.303,0.652l-3.33,0.651l-2.244,-0.289l-1.52,0.289l-0.796,-0.506l-0,-0.797l-0.869,-0.072l-0.579,0.869l-1.158,-0.29l0.507,-1.737l-2.244,-0.073l-2.751,-1.158l-0.652,-0.579l-2.244,-0.941l-1.013,-1.013l-0.579,-1.159l0.217,-2.606l0.434,-0.361l1.955,0.579l2.027,0.941l-0.073,-0.869l-1.737,-1.158l0.579,-1.303l-0.145,-1.158l1.882,-1.52l-0.289,-0.507l-2.461,1.448l-2.244,0.651l-0.797,0.869l-0.796,0.434l-1.52,0l-0.362,-0.651l0.362,-2.389l0.869,-1.955l1.303,-0.724l2.461,0.507l0.724,-0.724l0.941,-0.144l1.737,-0.869l-2.968,0.362l-0.869,-0.724l2.027,-1.737l0.869,-1.014l0.217,-1.086l1.593,-1.23l1.303,-0.579l1.158,0.434l1.086,-1.375l-3.62,0.796l-1.448,0.796l-1.954,2.027l-0.145,0.796l-1.448,0.652l-1.085,1.086l-0.435,0.868l-2.027,1.376l-1.013,0.217l0,-1.738l0.796,-1.447l-0.217,-1.158l2.317,0.144l1.303,-0.868l-1.955,-0l-1.013,-0.507l-0.869,-1.086l-0.434,-1.375l0.796,-1.303l-1.593,-1.448l-0.362,-1.592l-0.072,-1.81l0.652,-0.362l1.52,0.29l1.737,-0.145l3.764,-0.652l2.461,0.435l1.014,-0.073l1.447,-0.507l1.376,-0.072l1.592,0.869l0.507,-0.362l3.909,-0.869l-2.172,-1.086l0.073,1.014l-2.606,0.217l-2.317,-0.434l-0.941,-0.435l-0.362,0.941l-0.796,0.217l-2.461,-0.361l-3.402,0.217l-1.52,0.506l-1.014,-0.072l-1.809,-0.869l-0.652,-0.651l-0.217,-1.882l2.027,-0.217l-1.376,-1.665l-1.375,-0.941l-0.145,-1.014l0.507,-0.941l1.086,0.145l2.751,-0.072l4.343,1.085l3.547,-0.217l-0.579,-0.434l-2.1,-0l-5.211,-0.941l-1.593,0.072l-0.869,-0.217l-0.506,-0.724l0.289,-1.375l0.796,-0.29l0.869,0.435l1.375,-1.665l1.376,-0.724l1.448,-0.362l1.447,0.724l0.941,-0.072l2.896,-0.58l-0.941,-0.362l-2.534,0.362l-0.145,-0.362l1.738,-1.664l3.04,-0.29l4.271,0.362l1.665,0.579l0.289,-1.303l3.837,-1.013l-4.923,0.579l-1.302,-0.362l-3.547,0.507l-0.073,-0.941l1.665,-1.665l2.968,-0.652l1.375,-0.796l2.244,-0.145l1.882,0.217l0.869,0.941l3.185,1.231l-3.692,-2.896l0.797,-1.23l2.388,-0.29l0,-1.158l-1.592,-0.217l-0,-0.869l1.375,-0.651l2.027,-0.507l2.316,0.579l-0.434,0.941l0.652,0.362l1.23,-1.086l2.823,-0.579l2.027,1.52l0.362,0.797l0.796,-0.362l1.955,-0.362l1.954,0.217l1.303,-0.145l-0.724,-0.941l0.29,-0.724l1.737,-0.724l1.231,-0.217l1.882,-0.868l-0.579,-0.724l-1.014,-0.217l2.099,-1.086l-1.23,-0.435l-1.737,0.652l-1.159,0.651l1.086,0.724l-0.796,0.796l-4.416,2.027l-2.171,0.579l-1.014,-0.072l-1.375,-1.81l-1.52,-0.072l0.941,-1.593l1.158,-0.579l1.013,-1.665l1.665,-0.941l2.317,-2.388l2.027,-0.797l0.651,-0.796l2.172,-1.086l2.171,-0.651l0.217,-0.724l-1.954,0.651l0.29,-1.52l1.013,-0.724l4.922,-2.026l1.158,0.941l1.521,-0.145l1.665,-1.158l-0.218,-0.507l-1.52,0.724l-1.086,-0l-0.289,-0.434l-1.52,-0.362l-0.217,-0.869l0.941,-2.027l2.461,-2.389l0.362,-0.941l0.941,-0.506l1.23,0.144l-0.144,-0.796l-1.521,-0.796l4.488,-0.796l2.172,-0l1.737,-0.652l0.362,-0.724l-4.633,0.797l-1.737,0.072l-0.579,-1.955l0.145,-1.085l1.375,-1.593l1.014,-0.145l1.23,-0.796l0.073,-1.086l1.665,-0.579l1.52,-1.52l1.665,-0.362l1.013,0.145l2.172,-0.507l4.777,-0.072l0.072,-0.435l-4.56,-0.217l-2.533,0.145l-0.29,-0.434l2.027,-1.955l1.448,-0.724l1.23,0.145l1.303,0.724l0.434,-0.579l-1.158,-1.086l0.507,-1.086l-1.882,0.797l-1.303,0.217l-0.652,-1.448l1.665,-1.448l1.665,0l0.217,-1.085l2.389,-0.942l1.376,-0.144l1.085,-0.435l0.435,0.29l0.651,1.665l1.086,0.217l0.724,-0.579l-0.941,-0.796l-0.796,-1.303l1.447,-1.086l1.665,-0.145l1.882,0.507l1.665,-0.145l0.652,-0.869l-4.561,-0.072l-0.579,-0.651l0.869,-0.869l1.592,-0.579l1.81,-0.073l1.737,-1.013l0.652,-0.796l0.217,-1.158l1.013,-0.942l2.823,-0.579l-0.434,-1.592l0.579,-1.014l0.724,-0.434l1.52,1.086l1.303,0.362l-0.362,-1.014l0.217,-0.868l1.521,-0l0.723,-0.362l0.218,-0.941l1.013,-0.869l3.402,-0.507l0.362,1.81l0.507,1.014l0.579,-2.027l1.158,-1.52l1.737,-0.652l0.652,0.796l-0.29,3.113l-1.375,1.737l1.086,-0.144l1.809,-1.665l0.435,-0.869l-0.507,-2.027l0.434,-0.579l2.534,-0.072l1.375,0.289l0.507,-1.086l1.231,-0.072l1.303,0.652l2.967,1.013l-0.941,-1.593l-0.723,-0.579l-1.521,-0.362l-1.592,-0.723l0.869,-0.724l1.737,0.217l1.448,-0.579l1.592,-0.145l0.796,0.434l0.579,-0.724l1.81,-0.362l2.027,0.652l1.158,1.954l1.737,1.014l-0.072,-1.014l0.434,-1.375l1.665,-1.448l1.52,-0.724l1.014,-0.072l2.099,-2.461l-1.158,-0.724l2.389,-1.665l0.796,-0.072l3.909,1.52l1.086,-0.652l2.461,0.579l-0.579,0.724l-2.244,2.1l-0.362,0.579l-0.073,1.592l-0.868,1.014l0.579,1.013l1.158,-0.29l1.303,-0.941l0.072,-0.941l3.113,-2.678l1.375,-1.52l1.665,-1.231l1.086,-0.217l0.652,0.796l-0.145,1.086l0.145,3.113l2.678,-1.014l0.796,-2.171l0.796,-0.507l-0.579,-1.013l0.29,-0.797l1.665,-0.941l1.592,0.29l2.389,0.217l1.954,0.579l0.145,1.014l-0.579,0.651l-2.099,0.796l0.507,0.507l1.447,-0.434l0.652,3.981l0.651,-1.52l0.724,-0.507l0.073,-1.086l0.579,-1.375l1.303,-0.941l1.954,0l2.389,1.231l1.81,0.217l1.303,0.579l1.737,-0.507l1.448,0.724l0.072,0.724l2.751,0.217l2.75,1.158l0.435,1.158l-3.185,0.724l-1.303,0.724l-2.389,0.29l-8.325,-0.507l0.29,0.507l6.008,1.086l0.434,0.362l0.29,1.52l1.303,0.506l2.533,-0.144l0,-0.941l2.317,0.434l2.751,0.145l0.796,1.23l-0.217,1.086l-1.738,0.072l-3.04,-1.013l-0.289,1.665l-0.797,0.651l-4.198,0.941l-0.796,1.882l-1.593,0.724Zm-29.317,-20.051l2.679,0.362l1.592,1.013l-2.606,0.362l-1.23,-0.072l-1.448,-1.303l1.013,-0.362Zm-245.826,2.823l-0.073,-0.724l3.258,-1.085l1.375,-1.014l2.461,-0.362l-0.144,1.303l-2.172,0.579l-2.389,0.362l-2.316,0.941Zm194.866,-32.574l-0.724,0.362l-1.375,-0.579l-0.58,-0.869l2.172,-0.072l0.507,1.158Zm6.949,-36.266l2.823,0.145l1.448,1.375l1.013,1.448l0.941,0.145l3.402,-0.29l2.462,0.507l-1.014,0.796l0,0.869l3.981,0.941l1.303,0.072l2.172,-0.289l4.705,1.23l-4.777,0.797l-1.448,1.375l-2.678,0.941l-1.882,-0l-1.665,0.941l-1.593,0.072l-1.086,-1.375l1.593,-0.941l-2.244,-0.29l-0.869,0.362l-7.6,0.724l-0.797,-0.145l-0.651,-0.868l2.027,-0.435l0.144,-0.796l1.81,-1.737l-3.981,-1.158l-1.448,-0.869l-0.579,-0.724l-1.81,-0.651l0,-0.724l-1.23,0.072l-0.29,-0.868l7.818,-0.652Zm33.443,-0.434l-0.941,-0l-1.882,-0.579l0.506,-0.724l2.317,1.303Zm-99.605,0.289l2.534,1.086l1.375,0.362l1.665,1.086l-0.507,0.651l-1.447,-0.868l-2.606,-0.941l-1.665,-0.145l-2.389,-1.81l-1.086,-0.579l-0.579,-1.23l2.606,0.506l1.158,0.724l-0.217,0.579l1.158,0.579Zm112.634,-2.461l1.955,0.073l-0.072,0.434l-5.285,-0.29l-2.75,0.507l0.289,-0.651l1.737,-0.435l2.679,-0.072l1.447,0.434Zm-79.553,-7.818l1.014,-0.434l3.908,0.579l1.81,0.652l0.941,0.724l-1.375,1.375l1.23,0.724l2.317,-1.231l1.954,0.217l1.231,0.652l0.724,0.796l-0.145,1.013l2.244,0.797l2.461,-0.145l1.737,0.217l1.086,0.724l1.375,-0.145l0.145,-0.579l1.882,0.145l2.172,0.579l-1.52,0.651l1.52,0.58l2.461,0.434l1.52,0.434l-1.086,1.014l-2.316,-0l-2.099,0.217l-3.909,0.217l-2.172,1.158l-1.809,1.303l-0.29,1.158l0.434,0.797l-1.085,0.362l-2.389,0.144l0.145,2.823l-0.58,1.376l-2.388,0.217l-1.303,0.796l-0.869,1.52l-1.52,1.448l0.724,0.724l-1.52,1.375l0.868,1.303l-0.724,0.435l-1.52,0.217l-1.592,-0.217l-1.665,-0.797l-4.85,-1.592l-3.113,-1.738l-4.343,-0.941l-2.389,-1.158l-1.085,-0.941l0.217,-1.013l2.027,-0.145l2.099,0.507l1.23,-1.376l8.18,-0.796l5.284,-0.145l-1.375,-0.941l-4.995,0.507l-3.112,-0.145l-1.52,0.073l-1.521,0.434l-3.112,0.362l-3.33,-0.072l-2.099,-0.724l-0.941,-1.448l0.868,-0.434l2.751,0.072l4.633,-0.652l2.171,-0.579l2.244,-0.072l-0.362,-0.579l1.303,-0.29l1.738,-0.144l4.053,0.072l0.145,-0.434l-1.882,-0.435l-0.651,-0.434l1.882,-1.303l-1.593,0.072l-2.171,0.941l-1.303,0.362l-3.33,0.218l-1.231,-1.159l0.652,-0.868l-0.579,-0.507l-0.941,0.941l-1.521,0.217l-1.447,-0.651l-1.376,0.362l0.507,0.724l-0.434,0.723l1.447,0.652l-1.664,0.434l-1.521,0.796l-2.823,0.145l-3.257,0.073l-3.33,-1.159l-1.592,-0.868l-1.303,-0.869l-1.955,-0.434l-1.23,-0.579l-0.29,-0.797l-1.013,-0.506l-0.507,-0.869l3.185,0l-1.231,-1.303l0.362,-1.158l-2.461,0.072l0.29,0.652l-1.593,0.724l-0.868,-0.145l-1.665,-1.375l-1.738,-1.738l0.29,-0.941l-0.869,-0.724l1.086,-0.506l1.81,0.651l0.579,-0.507l2.751,-0.289l3.329,0.796l0.29,-0.796l3.04,0.362l2.172,-0.435l3.619,-0.217l1.448,0.29l-0.724,0.796l-4.56,0.217l-2.896,0.941l4.126,-0.144l0.724,0.072l0.434,0.796l2.172,0.362l1.665,0.724l0.579,-0.362l-0.434,-1.592l3.185,-1.665l1.52,0.289l1.52,0.652l2.895,2.171l1.665,1.376l4.416,2.026l-0.507,-1.085l-3.04,-3.258l-0.651,-1.23l0.651,-1.231l0.796,-0.362l-0.289,-0.941l0.941,-0.362l1.737,0.217l1.882,0.941Zm97.505,-1.665l-5.791,0.29l-0.651,-0.217l11.365,-1.014l1.23,0.362l-6.153,0.579Zm-86.068,-1.375l-1.303,0.434l-2.316,-0.361l0.651,-0.507l2.968,0.434Zm13.464,0.362l4.054,0.072l1.086,0.652l3.981,0.796l0.579,-1.086l-0.434,-1.592l1.375,-0.072l1.231,-0.435l2.244,0.217l0.144,0.941l-0.361,1.014l1.52,0.072l2.027,-0.217l1.375,-0.796l1.737,0.072l0.941,-0.434l1.014,0.434l5.935,0.507l2.389,0.434l3.764,0l2.679,0.145l2.026,0.724l0.797,1.23l-0.652,0.29l-4.85,1.448l-1.158,0.506l-1.737,1.665l-2.968,0.507l-2.534,-0.217l-2.171,0.507l-1.376,0.723l-1.085,0.145l-6.66,-0.289l-1.593,-0.797l0.869,-0.651l-5.936,0.217l-6.659,-0.072l-0.724,-0.362l-4.054,-0.362l-3.04,-0.796l0.796,-0.362l4.199,-0l-0.507,-1.086l-2.099,-0.073l-1.303,0.29l-3.113,0.145l-2.895,-0.073l-1.376,-0.217l-2.75,-0.724l-0.507,-0.579l2.027,-0.289l1.52,-0.507l-3.258,-0.217l-1.375,-0.217l-0.434,-0.652l4.271,-0.145l3.619,0.579l-0.507,-1.592l2.823,0.796l0.145,-0.796l-1.448,-1.013l1.448,-0.073l3.257,0.507l3.692,1.158Z" style="fill:none;fill-rule:nonzero;stroke:#1b3797;stroke-width:1.81px;"/><path id="PL" d="M267.974,93.348l0.434,-0.434l1.665,0.507l3.258,1.592l0.796,0.652l0.579,2.171l1.52,3.692l2.099,3.547l1.231,2.606l0.651,2.823l-0.434,1.158l-2.895,1.231l-0.58,0.362l-1.447,1.954l-0,0.869l2.388,0.941l1.303,0.724l0.58,0.724l-0.145,1.737l0.289,0.796l-0.579,1.086l0.073,0.941l0.723,1.158l0.869,1.303l0,0.941l1.955,2.027l1.375,2.027l1.013,0.724l-0.868,0.941l1.303,1.882l0.072,0.941l-0.869,1.303l-2.171,0.362l-3.475,3.33l-1.737,1.954l-2.461,3.185l-0.435,0.724l1.086,2.751l-0.072,1.303l1.375,1.013l-0.289,0.651l-2.389,-0.506l-0.652,-0.145l-4.126,-1.375l-0.579,-1.014l-0.724,-0.506l-2.244,-0.724l-2.606,-0.218l-2.316,0.145l-1.013,1.086l-1.303,-0.072l-1.738,-0.724l-2.171,0.072l-1.665,0.724l-0.796,1.52l-1.231,-0.434l-1.013,0.289l-0.435,-1.954l-1.013,-0.29l-2.172,-2.171l-1.592,0.941l-0.724,1.23l-1.593,0l-0.362,-1.085l-0.941,-0.145l-0.362,-1.158l-2.026,-1.593l-0.362,-1.303l-1.955,-0.579l-0.362,0.145l-2.533,-1.303l-1.303,0.724l-0.724,-0.435l-1.955,-1.664l1.014,-0.362l-0,-1.159l-2.606,0.507l-2.389,-1.375l-1.592,-0.435l-0.941,0l1.23,1.738l-2.533,1.809l-0.724,-0.289l-1.086,-1.376l-1.448,-1.302l-1.158,-0.652l1.158,-0.869l0.507,-0.796l-1.303,-0.869l-2.316,0.507l-0.579,-0.651l-1.955,-0.797l-3.33,-0.796l-0.724,-0.796l-0.217,-0.796l-2.389,-0.579l0.073,1.375l-1.52,0.289l1.158,-2.605l0.289,-1.665l-1.158,-2.317l-1.592,-0.651l-0,-1.158l-1.376,-2.244l0.579,-0.797l0.507,-1.882l-0.579,-1.375l-1.448,-1.665l0.435,-1.882l-1.014,-1.231l-2.389,-1.52l-1.158,-1.013l0.507,-1.158l1.375,-1.303l0.218,-1.955l-1.303,-2.968l-0.507,-1.882l2.027,0.652l0.506,-0.362l-0.072,-1.303l-2.968,-0.507l-0.072,-0.868l1.447,0.289l2.751,-1.013l4.705,-1.303l4.995,-1.231l2.389,-0.362l1.448,-1.592l1.375,-1.231l2.751,-0.507l0.941,-0.579l2.027,-0.868l4.777,-0.869l3.981,-0.29l3.909,1.665l-0.651,0.217l-2.172,-0.868l1.593,2.533l0.796,0.869l1.448,0.652l1.23,0.217l3.547,-0.362l1.593,-0.797l0.362,0.073l4.777,0.289l16.577,0.652l5.067,0.072Z" style="fill:none;fill-rule:nonzero;stroke:#1b3797;stroke-width:1.81px;"/><path id="RO" d="M329.213,191.216l1.086,1.158l1.303,0.651l2.896,0.652l0.434,-0.869l0.651,0.217l1.159,-0.362l1.592,-0.941l1.593,-0.144l1.592,0.506l1.376,1.303l-0.145,3.113l-0.507,1.52l-4.488,0.941l0.29,-0.434l-0.507,-1.448l-0.724,-0.724l-0.651,0.796l0.434,1.231l-0.507,1.013l-0.145,1.738l0.435,0.651l-1.158,1.448l-0.362,0.941l0.579,3.474l-0.29,2.679l-1.448,-0l-1.882,-0.362l-1.592,-0.507l-1.81,-1.882l-1.23,0.362l-0.652,-0.434l-2.316,-0.29l-3.258,-1.665l-2.099,0.29l-3.185,0.651l-2.316,0.869l-2.389,1.52l-0.869,1.158l-1.158,0.652l-1.665,0.434l-3.04,-0.145l-6.805,-1.23l-1.809,0.362l-2.534,-0.29l-3.836,-0.724l-2.823,-0.217l-2.679,0.434l-0.651,-1.303l1.303,-1.447l-3.113,-1.81l-0.579,-0.869l-1.158,-0.651l-0.362,-1.231l1.81,-1.303l-2.172,-1.158l-1.231,0.362l-1.23,1.303l-0.941,0.145l-0.724,-0.869l-1.086,-0.507l-2.533,-0.506l-1.086,-0.869l-1.52,-0.434l0.144,-0.435l1.303,-0.579l-1.665,-0.796l1.086,-1.448l-0.651,-0.796l-1.882,-0.579l-2.751,-1.375l-1.592,-1.303l-0.29,-2.968l-0.579,0.145l-1.303,-1.448l-2.099,-1.231l-1.231,-1.448l2.316,-0.651l1.014,0.362l1.81,-1.448l1.882,0.217l0.941,-0.651l1.085,-3.402l1.521,-1.086l-0.145,-0.941l1.158,-1.955l0,-0.868l1.013,-1.086l0.507,-1.81l1.014,-1.013l-0.073,-1.231l0.869,-0.724l1.375,-1.737l3.33,-0.796l1.593,-1.665l1.52,-0.652l0.651,-0.868l0.507,-0l1.954,1.086l1.955,-0.073l4.994,1.014l2.606,-0.507l0.869,0.217l3.113,2.389l1.52,-0.362l0.724,-0.869l2.461,-0.941l6.08,-0.868l0.797,-1.376l0.144,-1.013l2.679,-0.579l1.52,-0l1.81,1.158l1.809,2.172l2.172,3.547l1.086,0.941l1.809,2.316l1.52,1.303l0.941,1.231l2.172,1.52l1.013,2.099l1.014,1.665l0.362,2.099l-0.652,3.475l0.073,1.882l1.013,3.619l-0.651,0.507l1.447,1.665Z" style="fill:none;fill-rule:nonzero;stroke:#1b3797;stroke-width:1.81px;"/><path id="RS" d="M256.971,183.904l1.231,1.448l2.099,1.231l1.303,1.448l0.579,-0.145l0.29,2.968l1.592,1.303l2.751,1.375l1.882,0.579l0.651,0.796l-1.086,1.448l1.665,0.796l-1.303,0.579l-0.144,0.435l1.52,0.434l1.086,0.869l2.533,0.506l1.086,0.507l0.724,0.869l0.941,-0.145l1.23,-1.303l1.231,-0.362l2.172,1.158l-1.81,1.303l0.362,1.231l1.158,0.651l0.579,0.869l-0.651,0.507l-0.145,1.375l-1.52,0.724l-0.29,1.665l0.435,1.737l1.737,2.823l2.099,1.086l0.941,1.158l1.158,0.724l-0.217,1.013l-1.158,1.231l-0.796,1.158l-1.303,0.073l-0.797,0.434l0,2.389l1.014,2.099l-0.796,1.231l-0.724,0.217l-1.014,-0.507l-1.665,0.579l-1.375,-0.217l-1.448,0.651l-1.592,0.218l-0.435,-0.941l0.724,-0.652l0.869,-2.316l0.145,-0.869l-3.402,-0.869l-0,-0.941l-1.593,-0.868l-0.145,-0.507l-1.665,-1.52l-2.026,-0.941l-0.797,-0.941l-1.23,0.651l0.434,1.158l-0.29,0.724l-1.23,0.941l-0,1.014l-1.086,0.362l-0.072,-0.724l-3.837,-2.099l-1.52,-0.362l-2.172,-1.158l-1.375,-1.448l-1.882,-1.231l-0.289,-0.868l0.506,-0.58l1.81,0.218l0.145,-1.593l-2.317,-2.678l0.362,-0.579l2.244,0.072l0.217,-0.579l-2.388,-2.099l-1.738,-0.869l-0.362,-0.579l0.073,-1.882l1.158,-1.955l0.362,-1.809l-1.086,-0.579l-2.027,0.506l0.724,-1.158l-0.507,-1.882l1.231,-0.289l1.665,-0.073l-0.652,-1.086l-2.171,-0.723l-0.869,-0.724l0.29,-1.448l-0.941,-0.29l-0.145,-1.158l-1.158,-1.954l0.506,-1.086l1.521,-0.941l1.158,0.362l1.592,-0.724l1.086,-1.158l0.724,-0.217l2.099,0.289l0.796,-0.145l2.027,0.218l0.724,0.361Z" style="fill:none;fill-rule:nonzero;stroke:#1b3797;stroke-width:1.81px;"/><path id="SK" d="M273.765,151.041l-1.086,2.171l-0.579,2.1l-1.158,1.23l0.072,1.81l-3.112,0.796l-0.435,-0.145l-1.592,-1.592l-1.014,-0.652l-3.33,0.507l-1.809,-0.434l-1.955,-0.073l-1.303,0.29l-1.158,2.533l-3.619,1.81l-2.534,-1.013l-0.506,0.144l-0.724,1.086l-1.738,0.435l-3.112,0.289l-1.014,0.507l-0.289,0.724l0.362,0.941l-0.435,0.724l-5.067,0.289l-3.402,-0.072l-1.158,-0.507l-3.04,-1.954l-1.52,-0.218l-1.665,-2.099l-1.159,-2.099l-0.072,-0.579l0.652,-1.737l0.796,-2.027l1.013,-0.869l2.606,0.362l1.231,-0.145l1.086,-0.506l1.52,-1.376l1.158,-0.579l0.507,-2.171l1.665,-0.869l0.434,-0.579l1.448,-1.086l2.026,-0.217l0.941,0.145l0.362,1.085l1.593,0l0.724,-1.23l1.592,-0.941l2.172,2.171l1.013,0.29l0.435,1.954l1.013,-0.289l1.231,0.434l0.796,-1.52l1.665,-0.724l2.171,-0.072l1.738,0.724l1.303,0.072l1.013,-1.086l2.316,-0.145l2.606,0.218l2.244,0.724l0.724,0.506l0.579,1.014l4.126,1.375l0.652,0.145Z" style="fill:none;fill-rule:nonzero;stroke:#1b3797;stroke-width:1.81px;"/><path id="SI" d="M223.384,179.561l-1.81,-0.434l-0.652,0.579l0,1.231l-1.447,-0l-0.507,0.724l-3.185,1.23l-0.29,1.013l0.652,0.652l0.145,1.592l-0.29,0.797l-1.52,0.434l-1.52,0.724l0.724,0.796l-0.507,0.507l0.579,1.665l-0.869,0.289l-1.158,-0.144l-1.448,-0.507l-0.941,0.362l-1.085,-0.507l-1.882,-1.52l-0.869,1.592l-0.434,0.218l-2.606,0.072l-0.797,-0.362l-1.013,0.941l-2.389,-0.579l-0.362,-0.434l1.231,-0.797l1.086,-0.072l-0.145,-0.941l-1.086,-0.941l-1.375,-0.796l0.289,-1.448l-0.941,-0.145l-0.217,-0.724l1.158,-1.52l-1.665,-0.506l-0.506,-1.014l2.388,-1.665l0.145,-0.651l3.62,0.651l3.619,0.507l2.172,-0.869l0.723,-0.941l1.376,-0.506l1.882,-0.145l2.027,0.145l1.665,-0.797l1.158,-0.144l1.737,0.361l0.072,-1.375l0.941,-0.651l1.738,0.072l1.013,2.389l1.376,1.592Z" style="fill:none;fill-rule:nonzero;stroke:#1b3797;stroke-width:1.81px;"/><path id="SE" d="M213.177,72.646l-1.086,-0.218l-0.217,-2.75l1.448,-3.33l0.724,-0.217l1.954,-4.705l0.362,1.447l-1.086,2.317l-0.217,1.592l-0.434,0.362l-1.448,5.502Zm18.965,-16.432l-0.941,1.013l-1.013,0.362l0.072,2.389l1.086,0.868l-0.941,0.362l-0.507,1.303l-1.303,0.435l-1.085,1.158l-0.218,1.158l-1.52,0.652l0.869,-1.738l-0.652,-0.506l-1.013,-1.521l0.29,-0.651l-0.435,-2.316l1.955,-2.1l0.941,-0.796l2.389,-0.724l0.941,0l1.085,0.652Zm26.639,-81.798l-1.955,0.218l-1.592,-0.435l-0.724,0.217l-2.751,0.218l-0.796,0.506l-1.52,-0.506l-1.448,-0.869l-1.448,0.796l-1.158,-0.724l-0.724,1.376l0.073,1.303l-1.303,-0.145l0.217,0.796l-1.448,1.086l-2.316,0.145l0.506,1.085l-0.651,0.507l0.724,1.231l-0.941,1.086l-1.52,1.375l-0.362,0.724l1.23,0.796l1.159,1.81l1.158,0.796l-0.29,0.869l-1.52,0.796l-1.592,1.23l-1.448,3.113l-2.244,0.941l-1.737,1.158l-2.172,0.507l-1.737,1.593l-1.303,-0.58l-1.086,0.362l-0.724,1.303l-1.375,1.086l-1.738,-0.145l0.145,0.579l-1.665,0.218l-0.724,2.895l-1.592,0.434l-0.507,0.58l-0.651,-0.435l-1.521,0.073l1.159,2.026l-1.231,1.303l-0.869,0l-1.085,0.507l-1.376,-0.579l-0.144,0.869l0.579,0.941l0.941,0.724l-0.073,0.941l-0.651,3.112l0.506,1.303l-1.52,0.869l-0.579,0.796l0.435,1.231l-0.073,0.796l0.507,1.375l0.579,3.041l0.796,1.447l-0.072,1.158l0.941,0.652l1.52,-0.072l1.013,1.158l2.244,-0.579l0.58,0.796l2.099,1.592l1.23,0.218l1.376,0.868l-0,1.086l2.099,0.724l1.375,1.448l0.579,1.158l-0.072,0.724l-1.882,1.086l-0.941,0.941l-2.751,1.52l-0.434,-0.073l-1.52,0.724l1.447,0.435l1.014,-0.507l1.882,-0.435l1.013,0.869l-1.592,0.362l-0.217,1.158l-0.579,0.724l-1.448,0.507l-2.027,1.086l-2.895,1.013l-0.797,0.869l-1.882,0.724l-0.941,0.579l-2.751,-0l-2.678,-0.073l0.724,0.652l0.652,-0.145l2.605,0.29l1.231,0.941l-2.172,0.651l1.231,2.316l-0.507,0.58l0.29,2.533l-0.796,0.072l-0.218,1.014l0.435,1.81l0.724,1.52l-0.073,0.724l-1.086,1.737l0.652,2.099l-1.086,3.837l-1.375,2.244l-0.941,2.967l-1.303,1.014l-1.738,-0.652l-2.461,0.362l-2.316,-0.217l-2.172,0.145l-0.579,0.289l0.507,1.014l-1.665,-0.145l-1.231,0.796l-1.447,1.521l-0,1.085l1.375,2.172l-1.231,1.448l-0.796,-0l-2.316,-0.362l-3.981,0.868l-3.692,-0.723l0.362,-0.724l0.144,-2.244l-0.434,-1.231l-0.941,-0.796l-2.244,-2.751l-0.868,-1.665l1.737,0.652l0.724,-0.362l-1.303,-1.882l1.592,-0.073l0.507,-0.724l-0.434,-1.085l-1.376,-0.435l-1.375,-1.737l-1.303,-0.869l-2.534,-3.402l-0.941,-2.316l-0.796,0.217l-0.869,-2.678l-1.23,-0.435l-0.434,-2.678l-1.303,-0.29l-0.941,-1.23l-0.29,-2.317l-0.869,-0.434l-0.579,-1.013l-0.579,-2.172l-0.217,-1.954l-0.651,-1.303l0.361,-0.869l0.797,-0.145l0.796,0.579l0.724,1.303l1.375,-0.144l0.507,-1.014l0.434,-2.823l-1.158,-3.185l1.086,-1.086l0.651,-1.737l1.882,-0.507l0.941,-0.579l1.376,-1.448l0.072,-2.026l0.434,-1.521l-0.361,-1.013l-2.244,-3.547l-0.218,-1.158l1.303,-0.434l1.738,-0l0.941,-1.81l0.289,-1.376l-2.461,-1.954l-0.869,-0.29l-2.75,-1.52l0.651,-4.632l0,-1.159l-1.809,-3.185l0.072,-1.303l-0.434,-2.026l0.796,-0.797l-1.955,-2.968l1.448,-2.026l-0.362,-1.086l0.869,-0.724l2.533,-2.751l2.389,-1.086l2.389,-0.289l5.139,0.651l1.231,-1.592l-0.072,-0.869l-0.797,-2.099l-3.402,-1.158l3.185,-3.62l2.389,-3.619l0.072,-3.402l0.435,-1.955l-1.014,-2.823l2.751,-0.289l1.737,-0.362l2.389,-1.086l-0.724,-1.81l0.941,-0.651l2.172,-2.099l2.389,-2.1l1.085,-0.723l0.145,-1.014l-0.724,-0.941l-1.954,-1.665l0.362,-0.796l1.954,-0.434l0.796,-0.797l1.086,-2.533l2.679,-1.376l1.085,-0.651l4.561,1.303l1.52,-2.244l-0.579,-2.606l-0,-0.579l1.52,-0.362l2.968,0.651l2.099,0.073l6.225,1.23l0.724,0.073l1.81,-1.158l-2.099,-0.652l1.158,-0.651l1.013,-1.376l-0.072,-1.447l-1.882,-1.159l3.692,-0.144l2.099,0.579l0.289,0.651l2.1,0.796l3.474,1.665l3.04,1.303l6.009,1.231l2.533,1.303l0.869,1.158l1.013,0.072l1.375,1.086l1.303,0.652l-0.796,0.724l0.29,1.737l0.506,1.013l-0.217,1.376l2.027,0.289l0.434,0.941l-0.723,0.579l-0.073,0.797l0.579,1.158l2.389,1.882l0.434,0.651l-0.506,1.014l0.072,1.303l-1.086,0.941l0,0.941l0.941,1.882l1.303,0.434l1.376,1.593l1.158,1.809Z" style="fill:none;fill-rule:nonzero;stroke:#1b3797;stroke-width:1.81px;"/><path id="UA" d="M362.005,182.819l-0,0.434l-2.823,-0.579l-0.652,-0.652l3.475,0.797Zm-19.11,10.568l-1.376,-1.303l-1.592,-0.506l-1.593,0.144l-1.592,0.941l-1.159,0.362l-0.651,-0.217l-0.434,0.869l-2.896,-0.652l-1.303,-0.651l-1.086,-1.158l0.797,-0.507l1.447,-0.145l0.29,-0.724l-0.362,-1.013l1.81,-2.099l-0,-0.941l1.665,-1.231l0.289,-1.448l-0.724,-1.23l-0.362,-1.52l1.81,-1.159l1.52,0.724l1.375,0.145l1.521,0.579l1.158,-0.434l0.868,0.941l2.1,-0.29l0.434,-0.506l-2.099,-1.231l-0.145,-2.099l-0.724,-1.158l-1.52,-0.58l-1.448,-0.941l-0.651,-1.375l-0,-1.737l-2.099,-1.448l-1.665,-0.869l-0.435,-0.868l0.435,-2.244l-0.435,-1.665l-1.013,-1.014l-1.014,0.507l-1.013,-0.724l-1.013,-1.375l-4.054,-0.434l-0.434,-0.869l-1.81,-0.217l-2.606,-1.738l-2.533,-0.723l-1.159,0.723l-0.579,-0.217l-0.868,0.724l-2.896,-0.072l-0.507,-0.145l-1.665,1.013l-0.144,0.435l-2.679,0.579l-0.144,1.013l-0.797,1.376l-6.08,0.868l-2.461,0.941l-0.724,0.869l-1.52,0.362l-3.113,-2.389l-0.869,-0.217l-2.606,0.507l-4.994,-1.014l-1.955,0.073l-1.954,-1.086l-0.507,-0l-0.651,0.868l-1.52,0.652l-0.507,-1.231l-0.652,-0.506l-1.665,-0.29l-0.651,-0.796l-1.593,-0.579l-1.013,-1.665l-1.086,-0l-0.072,-1.81l1.158,-1.23l0.579,-2.1l1.086,-2.171l2.389,0.506l0.289,-0.651l-1.375,-1.013l0.072,-1.303l-1.086,-2.751l0.435,-0.724l2.461,-3.185l1.737,-1.954l3.475,-3.33l2.171,-0.362l0.869,-1.303l-0.072,-0.941l-1.303,-1.882l0.868,-0.941l-1.013,-0.724l-1.375,-2.027l-1.955,-2.027l0,-0.941l-0.869,-1.303l-0.072,-1.013l0.796,-0.362l1.376,0.217l0.796,0.362l1.375,-0.869l1.159,-1.158l0.579,-1.013l4.27,-0.362l1.665,-0.362l1.738,-0.073l5.646,0.29l4.705,1.086l4.416,0.651l1.665,0l1.302,1.52l0.724,0.218l2.172,-0.073l0.796,0.29l0.579,1.013l0.869,-1.23l1.375,0.361l1.376,-0.506l3.691,0.724l0.579,0.941l0.724,0.217l0.435,-0.796l2.75,-1.159l1.81,2.172l0.434,0.362l1.665,-0.579l5.14,-0.435l1.448,0.797l0.361,0.868l1.955,0.652l0.579,-1.014l-1.303,-2.605l0.724,-2.389l0.579,-0.869l1.593,-1.665l0.796,-0.362l1.23,0.29l1.014,-0.579l3.619,0.072l1.882,0.579l1.231,-0.072l1.303,-0.652l0.362,-1.737l1.158,-0.434l2.678,0.651l0.724,-0.072l1.955,-0.869l1.158,-0.145l1.447,0.218l2.462,-0.145l1.809,1.013l1.014,1.014l1.23,1.954l2.896,2.172l-0.073,0.724l-2.099,0.361l0.941,1.376l0.362,1.448l0.869,1.23l-0.29,0.724l2.244,0.072l2.099,0.724l2.968,-0.362l1.086,1.593l1.375,0.145l0.145,0.651l1.014,2.027l0.651,0.796l-0.145,1.303l0.362,0.724l1.376,1.158l0.506,0.724l0.797,0.29l1.665,-1.014l2.026,0.29l1.955,1.448l1.665,-0l1.23,0.796l1.014,-0.941l3.112,-0.652l1.665,-0.724l0.724,0.073l1.665,1.303l0.362,0.868l1.086,1.159l3.402,2.099l0.941,-0.434l0.651,-1.086l1.883,1.013l1.737,0.145l2.606,1.375l1.013,0.073l1.158,-0.435l1.448,1.303l1.375,0.145l3.186,1.665l2.099,-0.217l0.724,0.579l-0.073,1.23l0.724,0.652l-0.072,1.882l-1.231,1.52l-1.665,0.579l0.796,1.086l2.244,0.652l-0.651,0.651l-1.013,-0.145l-0.58,0.724l-0.217,1.665l1.81,0.507l0.869,2.027l-0,0.796l0.868,0.217l-0.941,3.402l-0.072,1.303l-3.04,0.145l-4.344,-0.217l-0.651,0.145l-0.652,1.375l-1.664,1.013l-1.231,0.145l-0.579,0.579l-0,1.665l-0.29,0.941l0.797,0.507l-0.507,1.158l0.362,0.941l-0.362,0.072l-3.113,-0.144l-2.461,0.217l-1.52,1.737l-1.086,0l-2.316,1.086l-1.014,1.231l-1.013,-0.58l-2.244,0.362l-1.231,0.797l-2.244,-0.073l-1.665,0.435l-3.329,2.75l-0.941,0.073l-0.724,-0.724l-1.159,1.882l-1.737,0.868l0.435,2.244l2.026,3.258l2.606,2.823l1.231,1.013l1.737,0.507l2.244,-1.013l1.737,0.289l1.231,-0.868l1.086,-0.073l2.678,0.724l-0.796,1.81l-0.217,1.882l-1.376,0.434l-1.592,-0.072l-1.593,0.289l-1.954,-1.086l-1.81,0l-0.796,1.376l-1.665,0.941l-0.434,1.013l-1.882,-0.217l-1.52,0.145l-2.027,1.013l-1.376,2.027l-1.665,1.303l-1.375,0.362l-1.448,-0.072l-0.941,-0.435l-2.099,-1.303l0.507,-1.447l0.362,-2.534l-0.869,-2.099l-1.665,-1.014l-1.158,0.145l-0.651,-0.217l-2.679,-1.737l-1.375,-0.145l-1.375,0.362l-1.086,-0.869l2.533,-2.099l2.534,-1.737l1.23,-0.145l1.521,-0.869l1.592,-1.158l-0.941,-1.665l-1.375,0.435l-1.593,-0.797l-0.651,-0.579l-2.244,0.579l-1.303,-0.072l-2.751,0.579l-1.375,-0.579l-2.896,-1.448l-1.882,-0.217l0,-0.724l1.303,-0.217l0.072,-0.724l-2.75,-0.434l-0.073,-0.941l1.448,0.362l2.316,0.145l2.1,0.361l1.52,-1.303l-1.737,0.362l-2.1,-0.362l-1.52,-1.302l-1.592,0.868l-2.317,-0.362l-1.737,0.579l-1.665,-0.144l-2.968,0.796l-0.289,2.099l-1.448,2.895l-2.244,2.679l-3.33,1.52l-1.23,-0.29l-0.652,0.797l0.145,0.941l0.724,0.651l0.796,2.244l-0.072,0.941Z" style="fill:none;fill-rule:nonzero;stroke:#1b3797;stroke-width:1.81px;"/><path id="NL" d="M112.631,125.561l-0.434,0.868l-2.316,1.086l-2.823,-0.796l-0.869,0.434l-0.869,-0.507l-0.217,-0.941l2.027,-0.289l2.533,0.506l1.086,-0.434l0.869,0.362l1.013,-0.289Zm-2.461,-3.837l1.086,1.013l-1.086,0.218l-1.158,-0.724l1.158,-0.507Zm13.102,-6.153l-2.171,-0.289l-0.652,-0.507l1.737,-1.231l2.317,-1.086l1.23,0.29l0.362,0.652l-0.796,0.796l-2.027,1.375Zm-5.501,-8.324l-0.796,0.796l-0.435,-1.014l1.231,-1.013l-0,1.231Zm-5.14,18.314l-1.882,-0.58l-1.592,0.362l-2.027,-0.506l-1.231,-0.941l0.869,-0.507l1.665,-0.072l2.895,0.506l0.869,-0.651l-0.434,-0.724l-1.665,-1.52l1.158,-1.955l1.013,-0.724l2.317,-2.75l0.651,-1.448l0.869,-3.981l0.724,-1.448l1.013,0.362l1.448,-0.579l2.461,-1.448l0.724,-1.231l0.724,-0.651l2.895,-1.158l1.52,-0.29l6.443,-0.362l1.303,1.231l1.954,0.434l0.073,3.113l-0.507,1.23l-0.796,2.751l-2.244,-0.072l-0.435,1.158l0.507,0.724l1.882,0.217l0.579,0.724l-0.434,1.882l-1.882,1.158l-0.217,0.652l0.724,0.651l-0.507,0.724l-3.258,0.941l-1.664,-0.579l-1.303,0.507l-0.507,0.796l2.244,2.968l-0,0.868l-0.941,2.027l0.507,0.869l-1.593,1.158l-0.362,0.579l1.375,0.869l-0.434,1.737l-0.869,-0.072l-1.737,-0.217l-0.507,-0.797l0.797,-0.941l0.724,-2.099l-1.882,-0.796l-1.231,-0.941l-1.375,0.289l-1.882,-1.013l-0.362,-1.158l-1.81,0.579l-0.796,-0.941l-1.086,0.724l-1.086,-0.58l-1.013,0.507l0.144,0.652l-1.52,-0.217Zm13.102,-11.293l0.652,-0.651l-0.362,-1.376l-1.52,-0.217l-0.362,-0.579l0.289,-1.81l-2.026,-0.289l-0.29,-1.81l-1.086,0.217l-1.665,1.086l0.435,0.941l1.158,1.158l-0,0.652l-1.52,0.507l0.072,1.882l-0.145,1.158l3.909,1.013l2.461,-1.882Z" style="fill:none;fill-rule:nonzero;stroke:#1b3797;stroke-width:1.81px;"/><path id="FR" d="M162.578,220.822l-0.217,1.665l0.724,1.23l0.434,4.706l-1.303,2.316l0.073,2.172l-1.158,3.112l-0.579,0.796l-2.751,-1.447l-0.869,-0.797l0.724,-1.303l-1.592,-0.651l0.289,-1.231l-0.145,-0.651l-1.158,-0.362l0.724,-0.941l-0,-0.579l-1.086,-0.724l-0.217,-0.651l0.941,-0.797l-0.434,-0.651l0.072,-0.941l0.652,-1.376l0.868,-0.651l2.027,-0.579l0.869,-0.796l1.375,0.434l0.434,-0.869l-0.144,-1.954l0.217,-0.796l0.941,0.361l0.289,1.955Zm-96.926,-34.674l-0.289,1.014l-1.376,-1.737l0.724,-0.362l0.941,1.085Zm61.095,-40.247l1.52,0.869l1.013,-0l1.448,-0.434l0.941,0.506l1.014,0.073l2.533,3.112l1.303,-0.506l1.013,0.289l0.218,0.652l1.52,0.072l2.171,-0.434l1.448,1.013l3.475,0.579l1.158,0.435l0.072,0.941l-2.533,2.75l-1.014,3.982l-0.724,1.303l-0.217,1.085l0.145,1.738l-0.434,1.447l-0,1.086l0.796,0.941l-1.086,0.507l-0.579,1.013l-1.954,0.218l-0.579,-0.58l-0.797,0l-1.303,1.014l0.941,0.796l-0.434,0.652l-2.751,2.895l-1.52,0.652l-0.362,2.099l-2.171,1.592l-0.797,2.1l0.579,0.506l-0.217,1.086l-1.086,0.724l0,0.724l1.014,0.072l1.665,-1.158l-0.362,-0.941l1.665,-1.086l1.375,-0.072l1.593,0.217l0.579,1.592l-0.362,1.231l1.665,1.665l0.651,1.013l-1.882,1.231l0.073,1.158l0.651,0.434l1.231,1.882l1.303,1.159l-0.58,1.809l-0.868,0.218l-1.231,0.941l-1.375,-0.145l-0.579,0.289l1.086,2.244l2.316,1.014l0.362,1.23l-0.579,0.507l-1.014,1.81l0.507,0.941l0.072,1.013l0.652,0.652l3.692,1.737l2.388,-0.434l0.218,1.447l-1.52,1.882l0.144,1.086l-0.434,0.217l-0.579,0.218l-1.737,0.796l-2.824,2.461l-1.302,0.724l-0.507,1.303l-1.448,1.013l-1.737,0.362l-1.665,0.724l-0.796,-0.29l-2.027,0l-1.231,-0.868l-2.461,-0.579l-0.796,-1.303l-1.81,-0.073l-0.579,-1.085l-1.375,0.217l-1.086,0.506l-1.448,-0.072l-4.271,-1.303l-1.013,-1.013l-1.231,0.362l-1.158,1.158l-4.705,2.968l-1.882,3.112l-0.073,0.869l0.507,2.823l1.158,1.81l-2.244,-0.435l-2.75,0.797l-0.869,0.579l-3.402,-0.869l-1.52,0.796l-0.941,-0.868l-2.027,-0.869l-0,-1.086l-1.882,-0.434l-0.652,0.507l-0.796,-1.086l-1.231,-0.217l-1.809,-0.724l-2.896,-0.796l-0.579,1.737l-3.402,-0l-0.507,-0.29l-2.244,0.29l-2.316,-1.52l-2.606,0.289l-1.593,-1.52l-1.592,-0.145l-3.185,-1.23l-1.303,0.289l0.217,-2.316l-3.113,-0.941l-0.361,-0.941l1.447,-0.362l1.376,-1.375l1.23,-5.14l0.941,-6.008l0.724,-1.158l0.869,-0.29l-0.724,-0.868l-0.796,1.085l0.506,-5.501l0.362,-2.027l0.652,-2.171l2.244,1.737l0.579,0.724l0.651,2.461l0.435,0.072l-0.797,-3.33l-1.303,-1.664l-2.606,-1.665l-0.361,-0.941l1.303,-0.435l-0.362,-1.303l-0.362,-4.27l-2.172,-0.435l-3.475,-1.882l-1.23,-1.882l-1.158,-1.375l-0.29,-1.231l0.652,-1.303l-0.579,-0.796l-1.014,-0.579l0.796,-1.158l-2.171,-0.145l-1.303,-0.362l-0.217,-0.796l0.941,-1.014l-1.159,-0.579l-1.882,0.145l-0.144,-1.231l-1.593,0.217l-0.869,-0.217l-0.796,-0.796l-0.941,0.145l-1.592,-0.29l-0.579,-0.506l-3.475,-0.941l-1.448,-0.073l-1.375,0.434l-0.796,-0.217l-0.941,-1.592l-2.244,-0.796l0.434,-0.507l2.244,-0.434l0.434,-0.507l-1.592,-0.652l-0.145,-0.868l1.158,0.217l0.073,-0.869l-2.896,0.073l-0.289,-0.941l0.361,-1.014l1.665,-0.869l4.199,-1.013l1.809,0.145l1.231,-0.145l2.172,-1.158l2.099,-0.29l1.954,0.579l1.81,2.027l0.869,0.724l2.244,-1.23l3.185,0.072l0.651,0.651l0.869,-1.23l0.724,0.724l3.402,-0.145l-1.086,-1.81l-0.145,-4.343l-0.941,-1.231l-1.52,-3.112l0.145,-1.014l2.316,0.218l1.955,-0.435l0.941,0.29l0.217,2.027l0.796,1.158l1.593,-0l1.665,0.362l2.171,0.072l3.113,0.579l1.303,-0.362l2.533,-1.447l-1.303,-0.507l-0.144,-0.507l0.651,-1.592l3.764,-1.81l2.679,-0.507l2.75,-0.941l1.448,-1.013l0.869,-1.303l0.362,-0.941l0.217,-4.923l0.724,-1.592l2.099,-1.158l4.633,-0.797l0.651,-0.361l0.652,1.592l-0,0.869l2.099,1.737l2.316,-0.724l1.158,1.303l0.362,1.448l3.041,0.796l0.434,1.448l0.651,-0.217l2.606,0.289l1.159,0.796l-0.29,1.159l0.507,0.506l-0.507,1.014l0.362,0.434l1.665,0.217l1.592,-0.217l0.941,-0.434l0.362,-1.014l1.376,-0.434l-0.579,1.955l0.434,0.434l0.289,1.448l1.231,0.072l2.389,1.086l2.027,1.882l2.461,-0.29Z" style="fill:none;fill-rule:nonzero;stroke:#1b3797;stroke-width:1.81px;"/><path d="M140.72,121.185l-9.049,-4.4l8.95,-4.599l0.099,8.999Z" style="fill:#2ad155;"/><path d="M272.38,67.424c0.517,-0.647 1.461,-0.753 2.108,-0.237c0.648,0.516 0.754,1.461 0.237,2.108c0,-0 -0.346,0.436 -1.062,1.226c-0.556,0.613 -1.505,0.66 -2.119,0.105c-0.613,-0.556 -0.66,-1.506 -0.104,-2.119c0.633,-0.699 0.94,-1.083 0.94,-1.083Zm-5.166,5.315c0.607,-0.563 1.557,-0.526 2.12,0.081c0.562,0.608 0.525,1.558 -0.082,2.12c-0.699,0.648 -1.47,1.34 -2.312,2.072c-0.625,0.543 -1.573,0.476 -2.116,-0.149c-0.543,-0.625 -0.476,-1.573 0.149,-2.116c0.817,-0.709 1.563,-1.381 2.241,-2.008Zm-6.905,5.832c0.654,-0.508 1.598,-0.389 2.105,0.265c0.508,0.654 0.389,1.597 -0.265,2.105c-0.783,0.607 -1.606,1.23 -2.468,1.866c-0.666,0.491 -1.606,0.349 -2.097,-0.317c-0.492,-0.667 -0.349,-1.607 0.317,-2.098c0.841,-0.62 1.644,-1.228 2.408,-1.821Zm-7.356,5.293c0.688,-0.46 1.621,-0.275 2.081,0.414c0.46,0.688 0.275,1.62 -0.414,2.08c-0.834,0.558 -1.696,1.121 -2.587,1.689c-0.698,0.445 -1.626,0.24 -2.071,-0.459c-0.445,-0.698 -0.24,-1.626 0.459,-2.071c0.871,-0.556 1.716,-1.107 2.532,-1.653Zm-7.702,4.8c0.716,-0.416 1.635,-0.173 2.051,0.543c0.416,0.716 0.172,1.635 -0.544,2.051c-0.872,0.507 -1.766,1.015 -2.683,1.524c-0.724,0.402 -1.638,0.141 -2.04,-0.583c-0.402,-0.724 -0.14,-1.638 0.584,-2.04c0.899,-0.499 1.776,-0.998 2.632,-1.495Zm-7.983,4.334c0.739,-0.374 1.642,-0.078 2.016,0.66c0.375,0.738 0.079,1.642 -0.659,2.016c-0.903,0.458 -1.824,0.914 -2.764,1.369c-0.745,0.361 -1.643,0.049 -2.004,-0.696c-0.361,-0.745 -0.049,-1.643 0.696,-2.004c0.924,-0.447 1.829,-0.895 2.715,-1.345Zm-8.216,3.891c0.758,-0.335 1.644,0.008 1.979,0.766c0.334,0.757 -0.009,1.643 -0.766,1.978c-0.928,0.409 -1.871,0.817 -2.83,1.221c-0.763,0.322 -1.644,-0.036 -1.965,-0.799c-0.322,-0.763 0.036,-1.643 0.799,-1.965c0.944,-0.398 1.871,-0.798 2.783,-1.201Zm-8.409,3.465c0.773,-0.297 1.641,0.09 1.938,0.863c0.296,0.773 -0.091,1.641 -0.864,1.938c-0.947,0.363 -1.909,0.723 -2.885,1.08c-0.778,0.284 -1.64,-0.117 -1.924,-0.894c-0.284,-0.778 0.117,-1.64 0.894,-1.924c0.961,-0.351 1.908,-0.706 2.841,-1.063Zm-8.571,3.057c0.786,-0.26 1.635,0.167 1.895,0.953c0.26,0.786 -0.167,1.635 -0.953,1.895c-0.964,0.319 -1.941,0.634 -2.931,0.945c-0.79,0.248 -1.632,-0.192 -1.88,-0.981c-0.249,-0.79 0.191,-1.633 0.981,-1.881c0.975,-0.306 1.938,-0.617 2.888,-0.931Zm-8.705,2.666c0.796,-0.225 1.626,0.239 1.851,1.036c0.225,0.796 -0.239,1.626 -1.036,1.851c-0.977,0.276 -1.967,0.548 -2.968,0.816c-0.799,0.214 -1.622,-0.262 -1.836,-1.062c-0.214,-0.799 0.262,-1.622 1.062,-1.836c0.987,-0.264 1.962,-0.533 2.927,-0.805Zm-8.815,2.292c0.805,-0.192 1.615,0.306 1.807,1.112c0.192,0.805 -0.307,1.615 -1.112,1.806c-0.989,0.236 -1.988,0.467 -2.998,0.693c-0.808,0.181 -1.611,-0.328 -1.792,-1.135c-0.181,-0.808 0.328,-1.611 1.136,-1.792c0.997,-0.223 1.983,-0.451 2.959,-0.684Zm-8.904,1.935c0.812,-0.16 1.602,0.369 1.762,1.182c0.16,0.812 -0.37,1.601 -1.182,1.761c-0.998,0.197 -2.005,0.388 -3.022,0.575c-0.814,0.15 -1.597,-0.389 -1.746,-1.204c-0.15,-0.814 0.39,-1.596 1.204,-1.746c1.004,-0.185 1.999,-0.374 2.984,-0.568Zm-8.974,1.593c0.818,-0.13 1.587,0.429 1.716,1.246c0.13,0.818 -0.429,1.587 -1.246,1.717c-1.005,0.159 -2.018,0.314 -3.04,0.463c-0.819,0.12 -1.582,-0.448 -1.701,-1.267c-0.12,-0.819 0.447,-1.581 1.267,-1.701c1.01,-0.148 2.011,-0.301 3.004,-0.458Zm-9.029,1.268c0.821,-0.101 1.57,0.484 1.671,1.306c0.101,0.822 -0.484,1.571 -1.306,1.671c-1.01,0.124 -2.027,0.243 -3.053,0.357c-0.823,0.092 -1.565,-0.502 -1.657,-1.325c-0.091,-0.823 0.502,-1.565 1.325,-1.656c1.015,-0.113 2.021,-0.231 3.02,-0.353Zm-9.07,0.958c0.824,-0.074 1.553,0.536 1.627,1.361c0.073,0.824 -0.537,1.553 -1.362,1.627c-1.013,0.09 -2.034,0.175 -3.062,0.255c-0.825,0.065 -1.548,-0.553 -1.612,-1.378c-0.065,-0.826 0.553,-1.548 1.378,-1.612c1.018,-0.08 2.028,-0.164 3.031,-0.253Zm-9.099,0.663c0.826,-0.048 1.536,0.585 1.583,1.412c0.047,0.826 -0.586,1.535 -1.412,1.583c-1.016,0.058 -2.038,0.111 -3.068,0.159c-0.827,0.039 -1.53,-0.601 -1.569,-1.428c-0.039,-0.827 0.601,-1.53 1.428,-1.568c1.02,-0.048 2.032,-0.101 3.038,-0.158Zm-9.118,0.382c0.828,-0.022 1.518,0.632 1.54,1.459c0.023,0.828 -0.631,1.518 -1.458,1.54c-0.511,0.014 -1.022,0.027 -1.536,0.038c-0.828,0.019 -1.515,-0.638 -1.533,-1.466c-0.018,-0.828 0.639,-1.515 1.466,-1.533c0.509,-0.011 1.016,-0.024 1.521,-0.038Z" style="fill:#2ad155;"/><path d="M264.738,73.211l8.815,-4.852l-9.171,-4.141l0.356,8.993Z" style="fill:#2ad155;"/><path d="M266.276,67.146c0.826,-0.046 1.535,0.588 1.58,1.415c0.046,0.827 -0.588,1.535 -1.415,1.58c-0.483,0.027 -0.988,0.056 -1.514,0.088c-0.826,0.05 -1.538,-0.58 -1.588,-1.406c-0.05,-0.827 0.58,-1.538 1.407,-1.588c0.531,-0.033 1.042,-0.062 1.53,-0.089Zm-7.642,0.52c0.825,-0.066 1.549,0.55 1.615,1.375c0.066,0.826 -0.55,1.549 -1.375,1.615c-0.97,0.078 -1.979,0.163 -3.025,0.257c-0.824,0.073 -1.554,-0.537 -1.627,-1.361c-0.074,-0.825 0.536,-1.554 1.36,-1.628c1.056,-0.094 2.074,-0.18 3.052,-0.258Zm-9.146,0.857c0.823,-0.088 1.563,0.509 1.651,1.332c0.088,0.823 -0.509,1.563 -1.332,1.651c-0.983,0.105 -1.99,0.217 -3.017,0.336c-0.822,0.095 -1.567,-0.495 -1.663,-1.317c-0.095,-0.823 0.495,-1.568 1.318,-1.663c1.036,-0.12 2.051,-0.233 3.043,-0.339Zm-9.12,1.097c0.82,-0.11 1.575,0.468 1.685,1.288c0.11,0.821 -0.467,1.576 -1.288,1.686c-0.988,0.132 -1.991,0.27 -3.007,0.415c-0.82,0.117 -1.58,-0.453 -1.697,-1.273c-0.117,-0.82 0.454,-1.58 1.273,-1.697c1.026,-0.146 2.037,-0.286 3.034,-0.419Zm-9.089,1.339c0.817,-0.132 1.587,0.425 1.719,1.242c0.132,0.817 -0.425,1.588 -1.242,1.719c-0.988,0.16 -1.987,0.325 -2.994,0.497c-0.816,0.139 -1.592,-0.41 -1.731,-1.226c-0.14,-0.817 0.41,-1.592 1.226,-1.731c1.017,-0.174 2.024,-0.341 3.022,-0.501Zm-9.051,1.588c0.813,-0.155 1.599,0.38 1.754,1.193c0.155,0.813 -0.38,1.599 -1.193,1.754c-0.986,0.188 -1.979,0.382 -2.978,0.582c-0.812,0.163 -1.603,-0.364 -1.766,-1.176c-0.162,-0.812 0.365,-1.603 1.176,-1.765c1.009,-0.203 2.011,-0.399 3.007,-0.588Zm-9.003,1.853c0.808,-0.179 1.61,0.332 1.789,1.14c0.18,0.808 -0.331,1.61 -1.139,1.789c-0.982,0.218 -1.968,0.442 -2.958,0.673c-0.806,0.188 -1.613,-0.314 -1.801,-1.12c-0.188,-0.807 0.314,-1.614 1.12,-1.802c1,-0.233 1.997,-0.459 2.989,-0.68Zm-8.944,2.138c0.802,-0.206 1.62,0.278 1.826,1.08c0.206,0.802 -0.278,1.62 -1.08,1.826c-0.975,0.251 -1.952,0.508 -2.932,0.771c-0.799,0.216 -1.623,-0.259 -1.838,-1.058c-0.215,-0.799 0.259,-1.623 1.058,-1.839c0.991,-0.266 1.979,-0.526 2.966,-0.78Zm-8.869,2.448c0.794,-0.235 1.629,0.219 1.864,1.012c0.235,0.794 -0.219,1.63 -1.013,1.864c-0.966,0.286 -1.933,0.579 -2.899,0.879c-0.791,0.245 -1.632,-0.198 -1.877,-0.989c-0.245,-0.79 0.198,-1.631 0.988,-1.877c0.979,-0.303 1.958,-0.6 2.937,-0.889Zm-8.775,2.787c0.784,-0.267 1.637,0.153 1.903,0.937c0.267,0.783 -0.152,1.636 -0.936,1.903c-0.954,0.325 -1.907,0.657 -2.858,0.996c-0.78,0.279 -1.639,-0.129 -1.917,-0.908c-0.279,-0.78 0.129,-1.639 0.908,-1.917c0.965,-0.344 1.932,-0.681 2.9,-1.011Zm-8.654,3.164c0.77,-0.302 1.641,0.078 1.944,0.849c0.302,0.77 -0.078,1.642 -0.849,1.944c-0.939,0.368 -1.874,0.743 -2.807,1.127c-0.765,0.315 -1.643,-0.051 -1.957,-0.817c-0.315,-0.766 0.051,-1.643 0.816,-1.958c0.948,-0.389 1.899,-0.771 2.853,-1.145Zm-8.499,3.583c0.754,-0.342 1.644,-0.007 1.985,0.747c0.342,0.754 0.007,1.644 -0.747,1.985c-0.918,0.416 -1.832,0.84 -2.74,1.272c-0.747,0.356 -1.643,0.038 -1.999,-0.709c-0.356,-0.748 -0.038,-1.644 0.71,-1.999c0.925,-0.441 1.856,-0.873 2.791,-1.296Zm-8.298,4.052c0.733,-0.386 1.64,-0.104 2.026,0.628c0.386,0.733 0.104,1.641 -0.628,2.027c-0.892,0.469 -1.776,0.947 -2.654,1.433c-0.724,0.402 -1.638,0.14 -2.039,-0.584c-0.402,-0.724 -0.14,-1.638 0.584,-2.039c0.897,-0.498 1.801,-0.986 2.711,-1.465Zm-8.034,4.578c0.704,-0.434 1.629,-0.216 2.064,0.489c0.435,0.705 0.216,1.629 -0.489,2.064c-0.856,0.529 -1.704,1.066 -2.542,1.613c-0.694,0.453 -1.624,0.257 -2.076,-0.436c-0.453,-0.694 -0.257,-1.624 0.436,-2.076c0.86,-0.561 1.729,-1.112 2.607,-1.654Zm-7.69,5.166c0.668,-0.489 1.608,-0.344 2.097,0.324c0.489,0.668 0.344,1.607 -0.324,2.096c-0.81,0.594 -1.61,1.197 -2.399,1.811c-0.653,0.508 -1.596,0.39 -2.105,-0.263c-0.508,-0.654 -0.39,-1.597 0.263,-2.105c0.812,-0.632 1.635,-1.253 2.468,-1.863Zm-7.235,5.813c0.621,-0.548 1.57,-0.49 2.118,0.131c0.548,0.62 0.489,1.569 -0.131,2.117c-0.75,0.663 -1.488,1.337 -2.213,2.023c-0.602,0.568 -1.552,0.542 -2.121,-0.06c-0.569,-0.602 -0.542,-1.552 0.06,-2.121c0.749,-0.708 1.512,-1.405 2.287,-2.09Zm-6.642,6.509c0.559,-0.61 1.509,-0.652 2.119,-0.092c0.61,0.559 0.652,1.509 0.092,2.119c-0.337,0.368 -0.67,0.739 -1,1.113c-0.548,0.62 -1.497,0.68 -2.117,0.132c-0.621,-0.548 -0.68,-1.496 -0.133,-2.117c0.343,-0.388 0.689,-0.773 1.039,-1.155Z" style="fill:#2ad155;"/><path d="M89.412,147.648l3.622,9.388l5.337,-8.531l-8.959,-0.857Z" style="fill:#2ad155;"/><path d="M95.199,150.118c-0.138,0.817 -0.913,1.367 -1.729,1.229c-0.817,-0.138 -1.367,-0.912 -1.229,-1.729c0.084,-0.501 0.179,-1.021 0.286,-1.556c0.161,-0.812 0.951,-1.341 1.763,-1.179c0.812,0.161 1.341,0.951 1.179,1.763c-0.1,0.506 -0.19,0.998 -0.27,1.472Zm1.777,-7.255c-0.257,0.787 -1.105,1.217 -1.891,0.96c-0.787,-0.257 -1.217,-1.105 -0.96,-1.892c0.321,-0.981 0.681,-1.98 1.085,-2.987c0.309,-0.768 1.183,-1.141 1.951,-0.833c0.769,0.309 1.142,1.183 0.833,1.951c-0.379,0.945 -0.717,1.882 -1.018,2.801Zm3.619,-8.133c-0.418,0.715 -1.338,0.955 -2.052,0.537c-0.715,-0.419 -0.955,-1.338 -0.537,-2.053c0.532,-0.908 1.108,-1.809 1.731,-2.695c0.476,-0.677 1.412,-0.841 2.089,-0.365c0.678,0.476 0.841,1.412 0.365,2.09c-0.574,0.817 -1.105,1.648 -1.596,2.486Zm5.391,-6.978c-0.591,0.581 -1.541,0.573 -2.122,-0.017c-0.58,-0.59 -0.573,-1.541 0.017,-2.122c0.754,-0.741 1.554,-1.459 2.402,-2.147c0.643,-0.522 1.588,-0.424 2.11,0.219c0.522,0.643 0.423,1.589 -0.22,2.11c-0.772,0.627 -1.501,1.281 -2.187,1.957Zm7.074,-5.197c-0.73,0.39 -1.639,0.113 -2.029,-0.617c-0.39,-0.73 -0.114,-1.64 0.616,-2.03c0.925,-0.493 1.892,-0.956 2.903,-1.382c0.763,-0.322 1.644,0.036 1.965,0.799c0.322,0.763 -0.036,1.643 -0.799,1.965c-0.925,0.39 -1.81,0.813 -2.656,1.265Zm8.272,-3.09c-0.806,0.192 -1.615,-0.306 -1.807,-1.112c-0.191,-0.805 0.307,-1.615 1.112,-1.806c1.007,-0.24 2.049,-0.448 3.127,-0.623c0.818,-0.132 1.589,0.424 1.721,1.241c0.132,0.817 -0.424,1.588 -1.241,1.721c-1.004,0.162 -1.974,0.356 -2.912,0.579Zm8.852,-1.149c-0.827,0.029 -1.523,-0.619 -1.551,-1.446c-0.029,-0.828 0.619,-1.523 1.446,-1.552c0.52,-0.018 1.047,-0.029 1.581,-0.033c0.828,-0.006 1.505,0.661 1.511,1.489c0.006,0.828 -0.661,1.505 -1.489,1.511c-0.506,0.004 -1.005,0.014 -1.498,0.031Z" style="fill:#2ad155;"/></svg>